<svg id="Camada_2" data-name="Camada 2" xmlns="http://www.w3.org/2000/svg" viewBox="0 0 460.84 258.38"><path d="M64.47,135.18a12.91,12.91,0,0,0,0-2.76c-1.49-5.63-3.09-11.22-4.54-16.85-.66-2.54-1.06-5.14-1.62-7.9.79-.06,1.26-.14,1.73-.14,8.92,0,17.85-.16,26.76.08a46.34,46.34,0,0,1,11.37,1.65c11,3.12,17.08,11.13,17.39,22.51.19,7.15.06,14.3.09,21.44,0,8.91.1,17.82.09,26.73,0,6.67-1.68,12.84-6,18.06a17.65,17.65,0,0,1-14,6.64c-7.71,0-15.42,0-23.13,0H70.49c.73-.77,1.08-1.48,1.54-1.56,1.35-.24,1.67-1.22,1.82-2.25a48.17,48.17,0,0,0,.67-6.54q.08-32.84,0-65.65a49.14,49.14,0,0,0-.72-6.71,2.48,2.48,0,0,0-2.06-2.45c-.39-.06-.67-.76-1.24-1.47H90.11c-.58.7-.87,1.41-1.29,1.5-1.54.31-1.86,1.45-2,2.66a61.09,61.09,0,0,0-.57,6.73c0,23.09,0,46.19-.06,69.28,0,1.46.46,1.89,1.85,1.95,5.35.23,9.18-2.29,12-6.5A20.78,20.78,0,0,0,104,182.07c.1-10.39,0-20.78,0-31.18,0-6.43.13-12.87-.07-19.29a44.57,44.57,0,0,0-1.32-9.26,10.34,10.34,0,0,0-8-7.75,31.39,31.39,0,0,0-6.67-1c-4.68-.17-9.37-.1-14.05-.11-3.57,0-5.34,1.52-5.2,5.07.15,3.78.87,7.54,1,11.32a14.93,14.93,0,0,1-.88,6.1,5.42,5.42,0,0,1-9.33,1.29c-.87-1.05-1.37-2.31-.64-3.49a3.72,3.72,0,0,1,2.29-1.55c1.43-.22,2.31.78,2.75,2.12C63.91,134.52,64.05,134.63,64.47,135.18Z" style="fill:#18393b"/><path d="M172.19,189.33H124l-.25-.37c.4-.41.75-1.08,1.22-1.18a2.22,2.22,0,0,0,1.81-2.25,52.78,52.78,0,0,0,.62-6.38q.07-26.73,0-53.45a52.8,52.8,0,0,0-.63-6.38c-.14-1.07-.52-2-1.86-2.19-.43-.07-.76-.74-1.46-1.47h37c-.73,8.68-5.09,16.51-5.86,25.1l.53.16c.2-.35.38-.71.6-1a2.75,2.75,0,0,1,3.46-1.07,2.82,2.82,0,0,1,1.39,3.48c-1.14,3.42-6,4.56-8.76,2-2.22-2.06-2.63-4.79-2.41-7.58.24-3.18.74-6.33,1.11-9.49a15.69,15.69,0,0,0,.1-1.81c0-4.05-1.48-5.58-5.54-5.61h-5.85v41.52c2.54-.39,4.93-.66,7.27-1.16.58-.12,1-1,1.5-1.49l1.18-1.25.39.24v11.8c-.71-.64-1.4-1-1.5-1.41a2.22,2.22,0,0,0-2.1-1.79c-2.15-.36-4.33-.61-6.69-.94V185h1.73c4.9,0,9.81-.17,14.71,0a7.81,7.81,0,0,0,7-3.8c2.72-3.94,3.55-8.46,4-13.1,0-.43,0-.88,0-1.32.16-3.12,2-4.46,5.3-3.67C169.48,171.76,170.15,180.49,172.19,189.33Z" style="fill:#18393b"/><path d="M267.11,115.6h36.48c-.39,2.06-.64,4-1.14,5.87-1.38,5.14-2.9,10.25-4.27,15.4a28.83,28.83,0,0,0-.51,4.07l.51.09c.11-.22.21-.45.32-.67.83-1.63,2.41-2.25,3.81-1.5a2.93,2.93,0,0,1,1,4,5.58,5.58,0,0,1-8.37,1.56,7.43,7.43,0,0,1-2.54-6.21c.19-3.55.76-7.08,1.06-10.64a18.07,18.07,0,0,0-.1-4.41,3.75,3.75,0,0,0-3.79-3.28c-2.41-.11-4.83,0-7.36,0v41.48c2.55-.4,5-.73,7.47-1.23.49-.11.86-.86,1.28-1.32s.82-.92,1.23-1.39l.38.25v11.85L291,168c-.56-.53-1-1.38-1.69-1.52-2.29-.5-4.62-.76-7.09-1.14v18.94c3.43,0,6.79.15,10.13-.05,2.23-.13,3.77-1.71,5-3.48a25.64,25.64,0,0,0,3.88-11.1,21.34,21.34,0,0,0,.39-4.27c-.29-4.13,3.08-5.51,6.85-4.57-7.92,10.45-4.63,19.69,3.29,28.62H266.46c.71-.77,1.06-1.5,1.54-1.61a2.25,2.25,0,0,0,1.79-2.27,60.54,60.54,0,0,0,.65-7.21q.07-25.83,0-51.64a57.65,57.65,0,0,0-.61-7.06c-.14-1.12-.41-2.28-2-2.48-.4-.05-.72-.75-1.07-1.16Z" style="fill:#18393b"/><path d="M341.29,141c.12-.24.23-.47.36-.7a2.81,2.81,0,0,1,3.71-1.48,2.87,2.87,0,0,1,1.19,4,5.6,5.6,0,0,1-9.89-.12,11,11,0,0,1-.82-6.92c.38-2.78.84-5.54,1.26-8.31a14.53,14.53,0,0,0,.13-1.48c.12-3.47-1.13-5.37-3.92-6-3.63-.8-6.5.34-7.57,3.56-2.51,7.53-2.13,13.77,3.82,19,3.14,2.77,6.42,5.36,9.58,8.11,4.84,4.21,8.59,9.12,9.64,15.68a24.59,24.59,0,0,1-.35,10.14c-1.85,7.31-7.6,12.09-15.67,13-4.17.49-8.24.35-12.08-1.64-8.77-4.55-10.08-14.22-8.07-20.31,1.44-4.37,5.76-6.59,9.66-5a5.15,5.15,0,0,1,3.63,4.69c-3.54,1.06-4.16,4-4.2,6.94a16,16,0,0,0,1.22,6.38c1.84,4.24,6.73,5,10.12,1.85a14.35,14.35,0,0,0,4.25-9.08c.79-6.69-1-12.55-6-17.22-2.12-2-4.5-3.7-6.74-5.56s-4.7-3.66-6.78-5.77c-5.13-5.22-6-11.59-4.12-18.36,1.81-6.47,6.61-9.93,12.93-11.4s12.69-.93,19,.29c1.31.25,1,1.1.86,1.86-1.19,4.69-2.43,9.35-3.63,14-.67,2.6-1.32,5.21-1.91,7.83a8.72,8.72,0,0,0,0,2Z" style="fill:#18393b"/><path d="M361.49,141.05a16.75,16.75,0,0,0-.24-3.26c-1.46-5.51-3.05-11-4.53-16.51-.47-1.79-.72-3.63-1.11-5.63h46.63a36.48,36.48,0,0,1-.61,4c-1.49,5.62-3.11,11.21-4.59,16.84a36.1,36.1,0,0,0-.64,4.55l.5.08c.08-.1.21-.2.24-.32.35-1.31,1.19-2.27,2.53-2.16a3.78,3.78,0,0,1,2.42,1.32c.84,1.06.41,2.3-.33,3.36a5.48,5.48,0,0,1-9.43-.61,11,11,0,0,1-1.15-5c.05-3,.58-5.89.86-8.85a32.86,32.86,0,0,0,.21-4.43c-.12-3-1.62-4.41-4.55-4.53-.93,0-1.87,0-3,0v1.84c0,18.75,0,37.5,0,56.25a53.77,53.77,0,0,0,.72,7.37c.15,1.11.51,2.24,2,2.51.42.07.73.73,1.44,1.48H369c.72-.74,1.06-1.41,1.53-1.51a2.23,2.23,0,0,0,1.81-2.24,52.19,52.19,0,0,0,.62-6.22q.06-29.12,0-58.23c0-.32,0-.65,0-1-4.43-1.41-7.53.7-7.37,5.21.11,3.17.85,6.33,1,9.5a25.38,25.38,0,0,1-.71,7.28,4.87,4.87,0,0,1-4.71,3.54,5.38,5.38,0,0,1-5.22-2.83,2.8,2.8,0,0,1,1-4,2.77,2.77,0,0,1,3.81,1.52,6.28,6.28,0,0,1,.25.73Z" style="fill:#18393b"/><path d="M200.65,189.34H180.81c.46-.7.68-1.44,1-1.51,1.58-.33,1.69-1.55,1.58-2.67-.32-3.49-.65-7-1.24-10.45q-3.49-20.46-7.17-40.9-1.17-6.48-2.74-12.88c-.39-1.63-.8-3.5-3-3.89-.38-.07-.65-.72-1.21-1.39h19.48c-.56.71-.84,1.41-1.25,1.51a1.6,1.6,0,0,0-1.36,1.94c.3,3.38.51,6.79,1.08,10.13,2.34,13.75,4.81,27.48,7.23,41.22,0,.16.07.31.19.78a7.87,7.87,0,0,0,.46-1.14q5.19-22.4,10.32-44.79a38.1,38.1,0,0,0,.7-5.55c.08-1.12.17-2.37-1.49-2.66-.3-.06-.48-.81-.84-1.47h15.13c-.59.66-.92,1.4-1.35,1.46-1.85.25-2.44,1.68-2.88,3-1.06,3.34-2.05,6.72-2.85,10.14q-5.84,24.85-11.55,49.74a29.94,29.94,0,0,0-.57,4.74c-.08,1.27-.36,2.7,1.51,3.15C200.28,188,200.39,188.74,200.65,189.34Z" style="fill:#18393b"/><path d="M239.27,161.23c2-.21,3.91-.34,5.75-.62,1.4-.21,2.88-.4,3.22-2.27.06-.35.78-.58,1.41-1v12.14c-.7-.63-1.14-1-1.56-1.39-.64-.58-1.18-1.53-1.91-1.7-2.22-.51-4.51-.72-7-1.09,0,1.14,0,1.95,0,2.75.2,5.6.37,11.19.64,16.78.07,1.39.45,2.71,2.21,3,.36.08.61.74,1.13,1.42H223.53c.65-.72,1-1.41,1.42-1.49,1.47-.28,1.8-1.37,1.94-2.52a57,57,0,0,0,.58-6.89q.08-25.89,0-51.79a57,57,0,0,0-.57-6.89c-.14-1.18-.41-2.4-2-2.61-.39,0-.69-.77-1.29-1.48h37c-.38,2-.62,3.91-1.11,5.74-1.38,5.19-2.9,10.36-4.28,15.56a33.18,33.18,0,0,0-.52,4.33c.52-.29.6-.31.62-.34.49-1.42,1.37-2.56,3-2.28a3.51,3.51,0,0,1,2.24,1.6c.73,1.42,0,2.77-1,3.87a5.66,5.66,0,0,1-9.1-1.79,13,13,0,0,1-.84-7.43c.27-2.45.67-4.89,1-7.34.06-.49.12-1,.14-1.47.17-4.69-1.35-6.26-6.07-6.26h-5.35Z" style="fill:#18393b"/><path d="M124,80.7q-4.91,3.47-9.64,7.26a.45.45,0,0,1,.1-.72c.47-.37-1-2.25-1.1-2.41q-5.85-7.41-11.72-14.8c-.12-.16-1.62-2-2.15-1.57s-.77,0-.77,0q2.7-2.16,5.44-4.22s.37.34-.16.75,1,2.52,1,2.52L117.5,83.94l1.62-1.22c2.24-1.79.28-5.49-.34-6.37-.86-1.19.82-1.9.82-1.89S120.16,77.54,124,80.7Z" style="fill:#18393b"/><path d="M117,59.08c-.73.16-1.85.48-2.41-.35a1.93,1.93,0,0,1,.8-2.54c3-2,5.51,3.56,2.37,5.35C118.38,60.26,117.89,59,117,59.08Z" style="fill:#18393b"/><path d="M145.46,67.47q-5.21,2.77-10.28,5.87a.45.45,0,0,1,.18-.7c.5-.3-.69-2.35-.79-2.52Q129.7,62,124.83,54c-.11-.17-1.36-2.18-1.93-1.84s-.75-.13-.75-.13q5.58-3.4,11.31-6.46c.76,1.44.93,5.75,1.55,7.12a.47.47,0,0,0,.46.35l0-.05a.9.9,0,0,1,.46-1.16.88.88,0,0,1,1.18.27,1.42,1.42,0,0,1-.42,1.55,2.28,2.28,0,0,1-1.88.69c-3.09-.46-1.84-7-5.32-5.17l-2,1.15,6.91,12c.33-.2,2.53-1.52,2.29-1.95a.48.48,0,0,1,.27-.69l1.62,2.91s-.46.34-.7-.1-2.52.73-2.85.93l3.74,6.47,1.72-1c2.41-1.46.92-5.38.41-6.32-.7-1.29,1-1.77,1-1.76S142.06,63.84,145.46,67.47Z" style="fill:#18393b"/><path d="M152.65,41.7c.2,2.93.44,5.84.71,8.75q2.55,2.69,5,5.41c.14.13,1.89,2,2.42,1.76a.73.73,0,0,1,.84.2c-1.84.76-3.66,1.56-5.48,2.38a.32.32,0,0,1,.09-.59c.54-.25-1.22-2.2-1.29-2.24q-1.65-1.75-3.33-3.5c.17,1.6.35,3.19.54,4.79,0,.17.4,2.65.93,2.4s.54.3.54.3q-2.11,1-4.21,2a.65.65,0,0,1,.37-.74c.55-.27.22-2.89.23-3-.39-2.82-.75-5.66-1.08-8.5-1.77-1.8-3.58-3.58-5.4-5.34-.06,0-2.06-1.85-2.64-1.57a.73.73,0,0,1-.91-.1c2-1,4-1.94,6-2.87,0,0,.46.34-.12.61s1.2,2.13,1.29,2.23c1.2,1.19,2.4,2.38,3.58,3.58-.17-1.66-.32-3.32-.46-5,0-.07-.23-2.7-.86-2.43s-.53-.31-.53-.31c1.57-.7,3.15-1.37,4.73-2a.72.72,0,0,1-.51.75C152.52,39,152.63,41.56,152.65,41.7Z" style="fill:#18393b"/><path d="M176.19,37.77a1.55,1.55,0,0,1-.68,1.43,2.09,2.09,0,0,1-1.93.3c-2.88-1.07-.51-7.24-4.17-6.11l-.87.28L174,49.89c0,.13.89,2.42,1.43,2.23a.45.45,0,0,1,.64.32c-1.87.62-3.74,1.26-5.6,1.94a.44.44,0,0,1,.31-.64c.54-.2-.22-2.44-.29-2.63Q167.63,43,164.74,35l-.82.29c-3.59,1.39,2.07,4.78.49,7.39a2.09,2.09,0,0,1-1.69,1c-.5,0-1.24-.2-1.43-.7a.85.85,0,0,1,.54-1.07.89.89,0,0,1,1.16.42s0,0,0,.08a.46.46,0,0,0,.07-.6c-.63-1.37-3.74-4.32-4.34-5.84q7.52-2.91,15.19-5.26c.47,1.57-.15,5.81.21,7.27a.47.47,0,0,0,.38.44l0-.06a.88.88,0,0,1,.65-1A.84.84,0,0,1,176.19,37.77Z" style="fill:#18393b"/><path d="M199.58,46.23c-1.91.39-3.81.8-5.72,1.24,0,0-.5-.4,0-.52s-1.5-2.16-1.64-2.26c-2-1.89-3-2.72-4.12-2.43.28,1.08.55,2.16.82,3.24,0,.13.7,2.47,1.26,2.33a.44.44,0,0,1,.61.36q-2.87.7-5.7,1.5a.44.44,0,0,1,.35-.62c.55-.15,0-2.44-.09-2.64l-4-14.74c-.05-.19-.71-2.46-1.32-2.3s-.68-.33-.68-.33q3.46-1,6.94-1.81c4.82-1.18,9.38,1.37,10.18,5.49a7.91,7.91,0,0,1-3.84,8.13c1.08,1,2.15,2,3.2,3,0,0,2.24,2.15,2.83,2A1,1,0,0,1,199.58,46.23Zm-6.82-12.74a6.26,6.26,0,0,0-7.67-4.67,1.31,1.31,0,0,0-.33.12l3.09,12.19.32-.08A6.43,6.43,0,0,0,192.76,33.49Z" style="fill:#18393b"/><path d="M219.56,43.27c-1.94.19-3.87.4-5.8.65a.36.36,0,0,1,.33-.55c.57-.07-.12-2.44-.17-2.56l-.66-2c-4.26-.72-5.09,1.8-5.2,2.92,0,.51-.12,2.52.38,2.44s.47.44.47.44c-1.52.22-3,.47-4.53.74a.59.59,0,0,1,.52-.6c.59-.11.83-2.61.85-2.75q.63-7.85,1.56-15.7c0-.14.29-2.64-.38-2.55s-.46-.43-.46-.43q3.27-.49,6.55-.88s.26.48-.37.55.15,2.5.15,2.57q1.88,5.55,3.62,11.13c.83-.66-.2-1.52-.2-1.52a1.85,1.85,0,0,1,.84,3.6c.17.54.33,1.08.5,1.63,0,.06.78,2.5,1.38,2.44A.55.55,0,0,1,219.56,43.27Zm-6.83-6q-1.54-4.66-3.18-9.3-.66,5.22-1.18,10.44A6.9,6.9,0,0,1,212.73,37.26Z" style="fill:#18393b"/><path d="M236.21,26.09c0,3.69.11,7.38.16,11.07,0,2.87-2.6,4.93-5.75,5.33-3.21,0-6-2-6.19-4.82-.27-3.68-.53-7.37-.79-11-.22-2.82,2.49-5.31,6.1-5.52h0C233.32,21.08,236.19,23.29,236.21,26.09Zm-3.9.08a3.93,3.93,0,0,0-2.54-3.44,4,4,0,0,0-2.24,3.65l.6,11.06a4,4,0,0,0,2.42,3.42,4.07,4.07,0,0,0,2.12-3.62Z" style="fill:#18393b"/><path d="M256.65,43.06q-2.91-.26-5.81-.42s-.37-.52.17-.49-.83-2.49-.94-2.62c-1.37-2.38-2.07-3.44-3.25-3.49l-.12,3.34c0,.13,0,2.56.55,2.59a.44.44,0,0,1,.48.52c-1.95-.08-3.91-.14-5.86-.16a.45.45,0,0,1,.51-.5c.57,0,.65-2.35.66-2.55q.14-7.65.28-15.28c0-.2,0-2.57-.62-2.58s-.55-.51-.55-.51c2.37,0,4.75.1,7.12.21,4.92.22,8.58,3.94,8.19,8.12A7.91,7.91,0,0,1,251.52,36c.75,1.25,1.49,2.52,2.21,3.78,0,0,1.54,2.69,2.14,2.74A1,1,0,0,1,256.65,43.06Zm-3-14.14a6.22,6.22,0,0,0-6-6.63,1.09,1.09,0,0,0-.36,0q-.23,6.29-.46,12.57h.34A6.41,6.41,0,0,0,253.69,28.92Z" style="fill:#18393b"/><path d="M278.18,29.57l-2,10.89c-.53,2.82-3.59,4.6-6.87,4.1-2.44-.36-4.89-.69-7.34-1,0,0,0-.5.55-.44s.9-2.34.91-2.48q.92-7.58,1.81-15.16c0-.14.27-2.56-.36-2.63s-.49-.56-.49-.56q4.06.45,8.12,1.07C276.19,23.94,278.71,26.75,278.18,29.57Zm-3.82-.66c.37-2.17-1.4-4.29-3.95-4.65a4.77,4.77,0,0,0-1,0q-1.29,9.36-2.57,18.71a4.72,4.72,0,0,0,.88.22,4.23,4.23,0,0,0,4.85-3.31Q273.47,34.38,274.36,28.91Z" style="fill:#18393b"/><path d="M286.09,47.82c-1.91-.46-3.82-.88-5.75-1.28a.45.45,0,0,1,.6-.39c.56.12,1.11-2.25,1.14-2.38q1.59-7.47,3.2-14.94c0-.13.5-2.52-.12-2.66s-.45-.6-.45-.6c2.13.44,4.25.92,6.36,1.42,0,0,0,.51-.65.36s-1.29,2.37-1.29,2.37l-3.46,14.85s-.55,2.51.05,2.65A.43.43,0,0,1,286.09,47.82Z" style="fill:#18393b"/><path d="M304.23,53.06q-2.28-.78-4.57-1.49-.35-8-1.12-16.08Q296.9,41.25,295.26,47s-.67,2.51-.08,2.68a.46.46,0,0,1,.34.62q-2.2-.64-4.44-1.23a.45.45,0,0,1,.62-.36c.55.15,1.21-2.12,1.27-2.31q2-7.38,4-14.75c0-.19.64-2.48,0-2.65s-.41-.63-.41-.63c1.71.46,3.41.93,5.11,1.43.39,4.08.71,8.17,1,12.24q1.24-4,2.51-8c.06-.19.73-2.46.12-2.65s-.38-.64-.38-.64q3.12,1,6.23,2s-.09.5-.69.29S309,35.13,309,35.29l-4.84,14.49c-.05.13-.75,2.46-.2,2.64A.44.44,0,0,1,304.23,53.06Z" style="fill:#18393b"/><path d="M323.24,60.64q-2.7-1.24-5.43-2.4s0-.53.57-.3,1.12-2.17,1.14-2.31c.14-.69.29-1.37.43-2.06-3.37-2.8-5.37-1-6-.12-.29.42-1.38,2.11-.9,2.29s.19.62.19.62c-1.44-.57-2.89-1.12-4.34-1.66a.6.6,0,0,1,.75-.25c.58.21,2.05-1.83,2.14-1.94Q316.27,46,321,39.73c.09-.11,1.59-2.13,1-2.39s-.19-.61-.19-.61q3.12,1.25,6.2,2.58s0,.54-.6.29-1.14,2.23-1.17,2.29q-1.15,5.74-2.43,11.46c1.06-.15.59-1.42.58-1.42a1.85,1.85,0,0,1-1.08,3.54c-.12.55-.25,1.1-.37,1.66,0,.06-.58,2.55,0,2.81A.55.55,0,0,1,323.24,60.64Zm-3-8.68c.66-3.21,1.29-6.42,1.9-9.65q-3.21,4.19-6.3,8.43A7.16,7.16,0,0,1,320.27,52Z" style="fill:#18393b"/><path d="M333.19,65.54c-1.78-.94-3.56-1.85-5.36-2.73a.44.44,0,0,1,.68-.22c.53.26,1.65-1.9,1.71-2q3.39-6.85,6.79-13.69c.06-.12,1.11-2.32.53-2.6s-.29-.7-.29-.7c2,1,4,2,5.92,3,0,0-.16.48-.73.18s-1.85,2-1.85,2q-3.51,6.76-7,13.53s-1.15,2.3-.59,2.58A.45.45,0,0,1,333.19,65.54Z" style="fill:#18393b"/><path d="M350.9,76.08c-1.68-1.12-3.38-2.22-5.08-3.28,0,0-.09-.64.39-.35s.43-2.6.4-2.77c-.11-2.77-.24-4.06-1.29-4.68l-1.7,2.87c-.07.11-1.24,2.24-.74,2.55a.44.44,0,0,1,.19.69c-1.73-1-3.48-2-5.23-3a.44.44,0,0,1,.69-.18c.52.29,1.72-1.75,1.82-1.93q3.78-6.63,7.55-13.28c.1-.17,1.24-2.25.67-2.57s-.25-.72-.25-.72c2.13,1.2,4.25,2.43,6.35,3.71,4.36,2.64,5.92,7.75,3.57,11.23-1.81,2.73-5.28,3.73-8.62,2.94.08,1.48.15,3,.21,4.43,0,0,.11,3.14.64,3.49A1,1,0,0,1,350.9,76.08ZM355,62.16a6.35,6.35,0,0,0-2.3-8.82,1.12,1.12,0,0,0-.33-.16L345.92,64l.3.18A6.53,6.53,0,0,0,355,62.16Z" style="fill:#18393b"/><path d="M365.22,86.55q-4.79-3.83-9.73-7.32a.45.45,0,0,1,.72-.11c.48.35,1.89-1.55,2-1.72L367.11,65c.11-.17,1.46-2.12.92-2.5s-.19-.74-.19-.74q5.36,3.78,10.54,7.92c-1,1.27-4.95,3.1-6,4.22a.48.48,0,0,0-.14.57l0-.06a.91.91,0,0,1,1.26,0,.89.89,0,0,1,.23,1.2,1.4,1.4,0,0,1-1.61.21,2.23,2.23,0,0,1-1.39-1.47c-.84-3,5.74-4.46,2.61-7l-1.88-1.42-7.17,9.63c.32.23,2.45,1.76,2.77,1.34s.73,0,.73,0l-2,2.64s-.51-.3-.2-.7-1.71-2.05-2-2.28q-1.68,2.28-3.38,4.55l1.63,1.23c2.37,1.68,5.4-1.22,6.06-2.06.91-1.16,2.08.28,2.07.28S367.17,82,365.22,86.55Z" style="fill:#18393b"/><path d="M183.92,92.57h-4.78a.38.38,0,0,1,.41-.43c.47,0,.5-2.07.5-2.24V79.76l-4.31,12.81-4.43-13.16V89.9s0,2.24.53,2.24a.4.4,0,0,1,.41.43h-3.73a.37.37,0,0,1,.41-.43c.46,0,.49-2.13.49-2.24V76.56c0-.12,0-2.24-.49-2.24a.38.38,0,0,1-.41-.44h3.87l3.84,11.39,3.82-11.39h3.87a.38.38,0,0,1-.41.44c-.46,0-.52,2.12-.52,2.24V89.9c0,.11.06,2.24.52,2.24A.37.37,0,0,1,183.92,92.57Z" style="fill:#18393b"/><path d="M200.19,78.4v9.66c0,2.51-2.15,4.28-4.74,4.51a4.72,4.72,0,0,1-4.75-4.51V78.4a4.7,4.7,0,0,1,4.78-4.52h0A4.71,4.71,0,0,1,200.19,78.4Zm-2.94,0a3.54,3.54,0,0,0-1.8-3.09,3.53,3.53,0,0,0-1.81,3.09v9.66a3.53,3.53,0,0,0,1.81,3.09,3.54,3.54,0,0,0,1.8-3.09Z" style="fill:#18393b"/><path d="M218,92.57h-3.88l-4.42-13.16V89.87s0,2.27.52,2.27a.39.39,0,0,1,.41.43h-3.73a.38.38,0,0,1,.41-.43c.47,0,.5-2.07.5-2.24V76.56c0-.17,0-2.24-.5-2.24a.38.38,0,0,1-.41-.44h3.88l3.34,10V76.56c0-.17,0-2.24-.49-2.24a.38.38,0,0,1-.41-.44H218a.38.38,0,0,1-.41.44c-.47,0-.52,2.1-.52,2.24V89.9c0,.11,0,2.24.52,2.24A.38.38,0,0,1,218,92.57Z" style="fill:#18393b"/><path d="M235.62,78.4v9.66a4.7,4.7,0,0,1-4.89,4.51h-6a.37.37,0,0,1,.41-.43c.46,0,.49-2.13.49-2.24V76.56c0-.12,0-2.24-.49-2.24a.38.38,0,0,1-.41-.44h6A4.71,4.71,0,0,1,235.62,78.4Zm-2.91,0a3.48,3.48,0,0,0-3.44-3.5,2.92,2.92,0,0,0-.73.09V91.47a2.92,2.92,0,0,0,.73.08,3.48,3.48,0,0,0,3.44-3.49Z" style="fill:#18393b"/><path d="M251.74,92.57h-9.43a.37.37,0,0,1,.41-.43c.46,0,.49-2.07.49-2.24V76.56c0-.17,0-2.24-.49-2.24a.38.38,0,0,1-.41-.44h9.23c0,1.43-1.37,4.81-1.46,6.12a.45.45,0,0,0,.18.46V80.4a.69.69,0,1,1,1.37,0,1.15,1.15,0,0,1-.82,1,1.36,1.36,0,0,1-1.45-.26c-1.81-1.66,1.28-6.14-1.55-6.2h-1.66V85.44c.3,0,2.25-.06,2.25-.52a.36.36,0,0,1,.43-.38v2.91a.36.36,0,0,1-.43-.38c0-.46-2-.52-2.25-.52v5h1.58c2.24-.09,2.67-3.73,2.67-4.66,0-1.28,1.34-.93,1.34-.93S250.73,88.38,251.74,92.57Z" style="fill:#18393b"/><path d="M280.51,78.4v9.66a4.7,4.7,0,0,1-4.9,4.51h-6a.37.37,0,0,1,.41-.43c.46,0,.49-2.13.49-2.24V76.56c0-.12,0-2.24-.49-2.24a.38.38,0,0,1-.41-.44h6A4.71,4.71,0,0,1,280.51,78.4Zm-2.92,0a3.47,3.47,0,0,0-3.43-3.5,2.86,2.86,0,0,0-.73.09V91.47a2.87,2.87,0,0,0,.73.08,3.47,3.47,0,0,0,3.43-3.49Z" style="fill:#18393b"/><path d="M298.06,74.32c-.5,0-.53,2.27-.53,2.27V88.06a4.75,4.75,0,0,1-9.49,0V76.56c0-.12,0-2.24-.49-2.24a.38.38,0,0,1-.41-.44h4.78a.38.38,0,0,1-.41.44c-.5,0-.53,2.27-.53,2.27V88.06a3.53,3.53,0,0,0,1.81,3.09,3.48,3.48,0,0,0,1.8-3.09V76.56c0-.12,0-2.24-.52-2.24a.37.37,0,0,1-.38-.44h4.78A.4.4,0,0,1,298.06,74.32Z" style="fill:#18393b"/><path d="M158.39,233.93h-3.84l-5.3-16.13v13.45s0,2.24.52,2.24a.4.4,0,0,1,.41.44h-3.73a.38.38,0,0,1,.41-.44c.47,0,.49-2.07.49-2.24V214.77c0-.17,0-2.24-.49-2.24a.38.38,0,0,1-.41-.44h3.87L154.55,225V214.77c0-.17-.06-2.24-.53-2.24a.38.38,0,0,1-.41-.44h4.78a.38.38,0,0,1-.41.44c-.46,0-.49,2.07-.49,2.24v16.54c0,.35,0,2.18.49,2.18A.38.38,0,0,1,158.39,233.93Z" style="fill:#18393b"/><path d="M177.16,232.36h-4.74s-.15-.44.32-.44.15-2.13.12-2.24l-.32-1.81c-3.26-1.1-4.2.93-4.43,1.89-.09.44-.41,2.16,0,2.16s.32.44.32.44H164.7a.51.51,0,0,1,.5-.44c.49,0,1-2.13,1.05-2.24l3.05-13.34c0-.11.5-2.24,0-2.24s-.29-.44-.29-.44h4.87s.14.44-.32.44-.12,2.18-.12,2.24l1.77,10c.7-.5,0-1.34,0-1.34a1.62,1.62,0,0,1,.34,3.2l.27,1.46c0,.06.4,2.24.9,2.24A.45.45,0,0,1,177.16,232.36Zm-4.89-5.89-1.48-8.41-2,8.88A5.16,5.16,0,0,1,172.27,226.47Z" style="fill:#18393b"/><path d="M194.83,232.36H191l-4.42-13.16v10.45s0,2.27.52,2.27a.4.4,0,0,1,.41.44h-3.73a.38.38,0,0,1,.41-.44c.47,0,.49-2.07.49-2.24V216.34c0-.17,0-2.24-.49-2.24a.38.38,0,0,1-.41-.44h3.87l3.35,10v-7.31c0-.17,0-2.24-.49-2.24a.38.38,0,0,1-.41-.44h4.77a.38.38,0,0,1-.4.44c-.47,0-.53,2.1-.53,2.24v13.34c0,.11.06,2.24.53,2.24A.38.38,0,0,1,194.83,232.36Z" style="fill:#18393b"/><path d="M213.09,220.19a1.33,1.33,0,0,1-.82,1,1.39,1.39,0,0,1-1.45-.27c-1.81-1.66,1.28-6.14-1.55-6.2h-.67v14.94c0,.11.06,2.24.53,2.24a.38.38,0,0,1,.41.44h-4.78a.38.38,0,0,1,.41-.44c.46,0,.49-2.07.49-2.24V214.74H205c-2.82.06.24,4.54-1.54,6.2a1.41,1.41,0,0,1-1.46.27,1.3,1.3,0,0,1-.81-1,.68.68,0,0,1,.67-.7.71.71,0,0,1,.7.7s0,0,0,.05a.4.4,0,0,0,.2-.46c-.09-1.31-1.45-4.69-1.45-6.12H213c0,1.43-1.37,4.81-1.46,6.12a.43.43,0,0,0,.18.46v-.05a.71.71,0,0,1,.7-.7A.68.68,0,0,1,213.09,220.19Z" style="fill:#18393b"/><path d="M228.86,232.36h-9.43a.38.38,0,0,1,.41-.44c.46,0,.49-2.07.49-2.24V216.34c0-.17,0-2.24-.49-2.24a.38.38,0,0,1-.41-.44h9.23c0,1.43-1.37,4.81-1.46,6.12a.44.44,0,0,0,.18.46v-.05a.69.69,0,1,1,1.37,0,1.18,1.18,0,0,1-.82,1,1.38,1.38,0,0,1-1.45-.27c-1.81-1.66,1.28-6.14-1.55-6.2h-1.66v10.48c.3,0,2.25-.06,2.25-.52a.36.36,0,0,1,.43-.38v2.91a.36.36,0,0,1-.43-.38c0-.46-2-.52-2.25-.52v4.95h1.58c2.24-.09,2.67-3.73,2.67-4.66,0-1.28,1.34-.93,1.34-.93S227.85,228.16,228.86,232.36Z" style="fill:#18393b"/><path d="M244.85,227.64c0,2.53-1.49,4.8-5.16,4.8a4.16,4.16,0,0,1-4.25-4.31c0-3.55,3.55-3.11,3.55-1.33-1.48,0-1.63,4.27.7,4.27,1.17,0,2.22-1.57,2.22-3.43,0-5.27-6.21-4.86-6.21-9.7,0-3,2-4.22,4.08-4.54a12.84,12.84,0,0,1,4.43.26c0,1.43-1.37,4.81-1.46,6.12a.4.4,0,0,0,.2.46s0,0,0-.05a.71.71,0,0,1,.7-.7.68.68,0,0,1,.67.7,1.15,1.15,0,0,1-.81,1,1.41,1.41,0,0,1-1.46-.27c-1.8-1.66,1.66-6.2-1.72-6.2-1.33,0-1.68,1.31-1.68,3.2C238.62,221.47,244.85,222.11,244.85,227.64Z" style="fill:#18393b"/><path d="M273.58,227.26s-1,2.48,0,6.67H263.42c0-5.74,7.83-9.67,7.83-16.13,0-2.56-1-4.51-3.23-4.51-3.38,0-3.32,3.58-2,4.77.52.47,1.77,1.14,2.62.09,1.28,1.75-.38,2.65-1.34,2.73a4,4,0,0,1-3.93-5.44,5.13,5.13,0,0,1,4.95-3.35c5,0,5.76,3.53,5.76,5.71,0,6.17-6.75,9.72-8.67,13.94h4.8c1.78,0,2.07-2.62,2.07-3.55C272.27,226.91,273.58,227.26,273.58,227.26Z" style="fill:#18393b"/><path d="M291.39,223c0,6-2.41,10.92-5.41,10.92S280.56,229,280.56,223,283,212.09,286,212.09,291.39,217,291.39,223Zm-2.94,0c0-5.15-1.1-9.35-2.47-9.35s-2.48,4.2-2.48,9.35,1.11,9.35,2.48,9.35S288.45,228.16,288.45,223Z" style="fill:#18393b"/><path d="M309,227.26s-1,2.48,0,6.67H298.81c0-5.74,7.84-9.67,7.84-16.13,0-2.56-1-4.51-3.24-4.51-3.37,0-3.31,3.58-2,4.77.52.47,1.77,1.14,2.62.09,1.28,1.75-.38,2.65-1.34,2.73a4,4,0,0,1-3.93-5.44,5.13,5.13,0,0,1,4.95-3.35c5,0,5.76,3.53,5.76,5.71,0,6.17-6.75,9.72-8.68,13.94h4.81c1.77,0,2.07-2.62,2.07-3.55C307.67,226.91,309,227.26,309,227.26Z" style="fill:#18393b"/><path d="M327.14,227.26s-1,2.48,0,6.67H317c0-5.74,7.83-9.67,7.83-16.13,0-2.56-1-4.51-3.23-4.51-3.38,0-3.32,3.58-2,4.77.52.47,1.78,1.14,2.62.09,1.28,1.75-.38,2.65-1.34,2.73a4,4,0,0,1-3.93-5.44,5.13,5.13,0,0,1,4.95-3.35c5,0,5.76,3.53,5.76,5.71,0,6.17-6.75,9.72-8.67,13.94h4.8c1.78,0,2.07-2.62,2.07-3.55C325.83,226.91,327.14,227.26,327.14,227.26Z" style="fill:#18393b"/></svg>