<?xml version="1.0" encoding="UTF-8"?>
<svg id="Calque_2" data-name="Calque 2" xmlns="http://www.w3.org/2000/svg" viewBox="0 0 460.29 197.48">
  <defs>
    <style>
      .cls-1 {
        fill: #e95f63;
      }

      .cls-1, .cls-2, .cls-3, .cls-4, .cls-5, .cls-6, .cls-7, .cls-8, .cls-9, .cls-10, .cls-11, .cls-12, .cls-13, .cls-14, .cls-15, .cls-16, .cls-17, .cls-18, .cls-19, .cls-20, .cls-21, .cls-22, .cls-23, .cls-24, .cls-25, .cls-26, .cls-27, .cls-28, .cls-29, .cls-30, .cls-31, .cls-32, .cls-33, .cls-34, .cls-35, .cls-36, .cls-37, .cls-38, .cls-39, .cls-40, .cls-41, .cls-42, .cls-43, .cls-44, .cls-45, .cls-46, .cls-47, .cls-48, .cls-49, .cls-50, .cls-51, .cls-52, .cls-53, .cls-54, .cls-55, .cls-56, .cls-57, .cls-58, .cls-59, .cls-60, .cls-61, .cls-62, .cls-63, .cls-64, .cls-65, .cls-66, .cls-67, .cls-68, .cls-69, .cls-70, .cls-71, .cls-72, .cls-73, .cls-74, .cls-75, .cls-76, .cls-77, .cls-78, .cls-79, .cls-80, .cls-81, .cls-82, .cls-83, .cls-84, .cls-85, .cls-86, .cls-87, .cls-88, .cls-89, .cls-90, .cls-91, .cls-92, .cls-93, .cls-94, .cls-95, .cls-96, .cls-97, .cls-98, .cls-99, .cls-100, .cls-101, .cls-102, .cls-103, .cls-104, .cls-105, .cls-106, .cls-107, .cls-108, .cls-109, .cls-110, .cls-111, .cls-112, .cls-113, .cls-114, .cls-115, .cls-116, .cls-117, .cls-118, .cls-119, .cls-120, .cls-121, .cls-122, .cls-123, .cls-124, .cls-125, .cls-126, .cls-127, .cls-128, .cls-129, .cls-130, .cls-131, .cls-132, .cls-133, .cls-134, .cls-135, .cls-136, .cls-137, .cls-138, .cls-139, .cls-140, .cls-141, .cls-142, .cls-143, .cls-144, .cls-145, .cls-146, .cls-147, .cls-148, .cls-149, .cls-150, .cls-151, .cls-152, .cls-153, .cls-154, .cls-155, .cls-156, .cls-157, .cls-158, .cls-159, .cls-160, .cls-161, .cls-162, .cls-163, .cls-164, .cls-165, .cls-166, .cls-167, .cls-168, .cls-169, .cls-170, .cls-171, .cls-172, .cls-173, .cls-174, .cls-175, .cls-176, .cls-177, .cls-178, .cls-179, .cls-180, .cls-181, .cls-182, .cls-183, .cls-184, .cls-185, .cls-186, .cls-187, .cls-188, .cls-189, .cls-190, .cls-191, .cls-192, .cls-193, .cls-194, .cls-195, .cls-196, .cls-197, .cls-198, .cls-199, .cls-200, .cls-201, .cls-202, .cls-203, .cls-204, .cls-205, .cls-206, .cls-207, .cls-208, .cls-209, .cls-210, .cls-211, .cls-212, .cls-213, .cls-214, .cls-215, .cls-216, .cls-217, .cls-218, .cls-219, .cls-220 {
        stroke-width: 0px;
      }

      .cls-2 {
        fill: #ee7c7f;
      }

      .cls-3 {
        fill: #e07578;
      }

      .cls-4 {
        fill: #f18e99;
      }

      .cls-5 {
        fill: #dd6468;
      }

      .cls-6 {
        fill: #ef7983;
      }

      .cls-7 {
        fill: #d5484d;
      }

      .cls-8 {
        fill: #e08386;
      }

      .cls-9 {
        fill: #e85459;
      }

      .cls-10 {
        fill: #ea595e;
      }

      .cls-11 {
        fill: #d5585b;
      }

      .cls-12 {
        fill: #ea6e73;
      }

      .cls-13 {
        fill: #ef7b85;
      }

      .cls-14 {
        fill: #e95459;
      }

      .cls-15 {
        fill: #eb5f65;
      }

      .cls-16 {
        fill: #e58e91;
      }

      .cls-17 {
        fill: #eb5a5f;
      }

      .cls-18 {
        fill: #ef7c80;
      }

      .cls-19 {
        fill: #ed6a70;
      }

      .cls-20 {
        fill: #d6585b;
      }

      .cls-21 {
        fill: #d7595d;
      }

      .cls-22 {
        fill: #d1464a;
      }

      .cls-23 {
        fill: #d45556;
      }

      .cls-24 {
        fill: #e46469;
      }

      .cls-25 {
        fill: #d24e50;
      }

      .cls-26 {
        fill: #f08690;
      }

      .cls-27 {
        fill: #ed6c72;
      }

      .cls-28 {
        fill: #e49598;
      }

      .cls-29 {
        fill: #eb6064;
      }

      .cls-30 {
        fill: #ed6a71;
      }

      .cls-31 {
        fill: #e46064;
      }

      .cls-32 {
        fill: #f3a5ad;
      }

      .cls-33 {
        fill: #d6575a;
      }

      .cls-34 {
        fill: #d86367;
      }

      .cls-35 {
        fill: #d9686b;
      }

      .cls-36 {
        fill: #dc4d51;
      }

      .cls-37 {
        fill: #dc4b50;
      }

      .cls-38 {
        fill: #ef797f;
      }

      .cls-39 {
        fill: #f2949f;
      }

      .cls-40 {
        fill: #e38f91;
      }

      .cls-41 {
        fill: #dd787a;
      }

      .cls-42 {
        fill: #ea5b5f;
      }

      .cls-43 {
        fill: #d35356;
      }

      .cls-44 {
        fill: #e34e53;
      }

      .cls-45 {
        fill: #d6595d;
      }

      .cls-46 {
        fill: #e18588;
      }

      .cls-47 {
        fill: #e56367;
      }

      .cls-48 {
        fill: #e0676b;
      }

      .cls-49 {
        fill: #ec737a;
      }

      .cls-50 {
        fill: #d75a5e;
      }

      .cls-51 {
        fill: #e26267;
      }

      .cls-52 {
        fill: #ee7178;
      }

      .cls-53 {
        fill: #d9696d;
      }

      .cls-54 {
        fill: #db7074;
      }

      .cls-55 {
        fill: #d75e62;
      }

      .cls-56 {
        fill: #e2767a;
      }

      .cls-57 {
        fill: #e14e53;
      }

      .cls-58 {
        fill: #ec676d;
      }

      .cls-59 {
        fill: #d65a5e;
      }

      .cls-60 {
        fill: #e18689;
      }

      .cls-61 {
        fill: #eb585e;
      }

      .cls-62 {
        fill: #db7073;
      }

      .cls-63 {
        fill: #eb5d65;
      }

      .cls-64 {
        fill: #dd7679;
      }

      .cls-65 {
        fill: #dc4c50;
      }

      .cls-66 {
        fill: #da6064;
      }

      .cls-67 {
        fill: #ef8185;
      }

      .cls-68 {
        fill: #d35254;
      }

      .cls-69 {
        fill: #ea5358;
      }

      .cls-70 {
        fill: #d45558;
      }

      .cls-71 {
        fill: #d9696c;
      }

      .cls-72 {
        fill: #ec6166;
      }

      .cls-73 {
        fill: #d96a6d;
      }

      .cls-74 {
        fill: #ec6167;
      }

      .cls-75 {
        fill: #f5b2b9;
      }

      .cls-76 {
        fill: #da6f72;
      }

      .cls-77 {
        fill: #ea5d62;
      }

      .cls-78 {
        fill: #e34f53;
      }

      .cls-79 {
        fill: #d55457;
      }

      .cls-80 {
        fill: #df4d52;
      }

      .cls-81 {
        fill: #e14f53;
      }

      .cls-82 {
        fill: #d24e51;
      }

      .cls-83 {
        fill: #e4696e;
      }

      .cls-84 {
        fill: #d86164;
      }

      .cls-85 {
        fill: #d45557;
      }

      .cls-86 {
        fill: #eb6b70;
      }

      .cls-87 {
        fill: #df6165;
      }

      .cls-88 {
        fill: #f18f9a;
      }

      .cls-89 {
        fill: #ea555b;
      }

      .cls-90 {
        fill: #de5659;
      }

      .cls-91 {
        fill: #e3787b;
      }

      .cls-92 {
        fill: #e96d74;
      }

      .cls-93 {
        fill: #ee747a;
      }

      .cls-94 {
        fill: #ed6b71;
      }

      .cls-95 {
        fill: #df4e53;
      }

      .cls-96 {
        fill: #d96468;
      }

      .cls-97 {
        fill: #d94b50;
      }

      .cls-98 {
        fill: #eb5a61;
      }

      .cls-99 {
        fill: #e27073;
      }

      .cls-100 {
        fill: #eb5f64;
      }

      .cls-101 {
        fill: #de4c51;
      }

      .cls-102 {
        fill: #e67478;
      }

      .cls-103 {
        fill: #ec676e;
      }

      .cls-104 {
        fill: #ee7479;
      }

      .cls-105 {
        fill: #d5474c;
      }

      .cls-106 {
        fill: #d86568;
      }

      .cls-107 {
        fill: #dc7275;
      }

      .cls-108 {
        fill: #db7174;
      }

      .cls-109 {
        fill: #ea565b;
      }

      .cls-110 {
        fill: #f18e9a;
      }

      .cls-111 {
        fill: #de6b6f;
      }

      .cls-112 {
        fill: #e2777b;
      }

      .cls-113 {
        fill: #eb5960;
      }

      .cls-114 {
        fill: #d65b5e;
      }

      .cls-115 {
        fill: #ef7883;
      }

      .cls-116 {
        fill: #ee7378;
      }

      .cls-117 {
        fill: #d96669;
      }

      .cls-118 {
        fill: #dd5a5d;
      }

      .cls-119 {
        fill: #f0818c;
      }

      .cls-120 {
        fill: #ea8083;
      }

      .cls-121 {
        fill: #e9575b;
      }

      .cls-122 {
        fill: #d45456;
      }

      .cls-123 {
        fill: #d45356;
      }

      .cls-124 {
        fill: #d24f52;
      }

      .cls-125 {
        fill: #f6b9c2;
      }

      .cls-126 {
        fill: #d85f62;
      }

      .cls-127 {
        fill: #e25f62;
      }

      .cls-128 {
        fill: #ec646b;
      }

      .cls-129 {
        fill: #ed686d;
      }

      .cls-130 {
        fill: #ec656c;
      }

      .cls-131 {
        fill: #ec6b70;
      }

      .cls-132 {
        fill: #ed6c75;
      }

      .cls-133 {
        fill: #f8c6d0;
      }

      .cls-134 {
        fill: #eb595f;
      }

      .cls-135 {
        fill: #ec6369;
      }

      .cls-136 {
        fill: #ea5359;
      }

      .cls-137 {
        fill: #ec7b7f;
      }

      .cls-138 {
        fill: #f08893;
      }

      .cls-139 {
        fill: #ed6b72;
      }

      .cls-140 {
        fill: #ed6e74;
      }

      .cls-141 {
        fill: #e37579;
      }

      .cls-142 {
        fill: #d96b6e;
      }

      .cls-143 {
        fill: #e25256;
      }

      .cls-144 {
        fill: #d1474b;
      }

      .cls-145 {
        fill: #e9777b;
      }

      .cls-146 {
        fill: #d6595c;
      }

      .cls-147 {
        fill: #e0797d;
      }

      .cls-148 {
        fill: #ed6c73;
      }

      .cls-149 {
        fill: #ee747b;
      }

      .cls-150 {
        fill: #e55559;
      }

      .cls-151 {
        fill: #e24e53;
      }

      .cls-152 {
        fill: #d24c4f;
      }

      .cls-153 {
        fill: #d94a4f;
      }

      .cls-154 {
        fill: #d24a4d;
      }

      .cls-155 {
        fill: #de797c;
      }

      .cls-156 {
        fill: #eb7478;
      }

      .cls-157 {
        fill: #e25055;
      }

      .cls-158 {
        fill: #d86468;
      }

      .cls-159 {
        fill: #ec646a;
      }

      .cls-160 {
        fill: #e8595d;
      }

      .cls-161 {
        fill: #ed686e;
      }

      .cls-162 {
        fill: #eb5c62;
      }

      .cls-163 {
        fill: #db6f72;
      }

      .cls-164 {
        fill: #de7a7d;
      }

      .cls-165 {
        fill: #d34a4e;
      }

      .cls-166 {
        fill: #ee767e;
      }

      .cls-167 {
        fill: #e16367;
      }

      .cls-168 {
        fill: #eb5b62;
      }

      .cls-169 {
        fill: #d6494e;
      }

      .cls-170 {
        fill: #e96469;
      }

      .cls-171 {
        fill: #df7c7f;
      }

      .cls-172 {
        fill: #ea676c;
      }

      .cls-173 {
        fill: #f18992;
      }

      .cls-174 {
        fill: #df7d80;
      }

      .cls-175 {
        fill: #e28285;
      }

      .cls-176 {
        fill: #ea5459;
      }

      .cls-177 {
        fill: #ec5f67;
      }

      .cls-178 {
        fill: #d44b4e;
      }

      .cls-179 {
        fill: #d94f53;
      }

      .cls-180 {
        fill: #da6c70;
      }

      .cls-181 {
        fill: #f1939b;
      }

      .cls-182 {
        fill: #f08790;
      }

      .cls-183 {
        fill: #e24f53;
      }

      .cls-184 {
        fill: #f0868b;
      }

      .cls-185 {
        fill: #e2686d;
      }

      .cls-186 {
        fill: #e7575b;
      }

      .cls-187 {
        fill: #ea575d;
      }

      .cls-188 {
        fill: #d24f51;
      }

      .cls-189 {
        fill: #d35153;
      }

      .cls-190 {
        fill: #e3696e;
      }

      .cls-191 {
        fill: #f18c99;
      }

      .cls-192 {
        fill: #f39da8;
      }

      .cls-193 {
        fill: #de5c5f;
      }

      .cls-194 {
        fill: #dc7477;
      }

      .cls-195 {
        fill: #d8575a;
      }

      .cls-196 {
        fill: #da696c;
      }

      .cls-197 {
        fill: #da686c;
      }

      .cls-198 {
        fill: #d75c60;
      }

      .cls-199 {
        fill: #e1686c;
      }

      .cls-200 {
        fill: #df7b7f;
      }

      .cls-201 {
        fill: #ea585e;
      }

      .cls-202 {
        fill: #de7c80;
      }

      .cls-203 {
        fill: #d54a4e;
      }

      .cls-204 {
        fill: #d44d51;
      }

      .cls-205 {
        fill: #e05156;
      }

      .cls-206 {
        fill: #f4a2ae;
      }

      .cls-207 {
        fill: #eb5e63;
      }

      .cls-208 {
        fill: #ee7379;
      }

      .cls-209 {
        fill: #d35255;
      }

      .cls-210 {
        fill: #e35459;
      }

      .cls-211 {
        fill: #d75f63;
      }

      .cls-212 {
        fill: #d86569;
      }

      .cls-213 {
        fill: #d55558;
      }

      .cls-214 {
        fill: #d75f62;
      }

      .cls-215 {
        fill: #ee757d;
      }

      .cls-216 {
        fill: #de5d60;
      }

      .cls-217 {
        fill: #d9676a;
      }

      .cls-218 {
        fill: #ed737b;
      }

      .cls-219 {
        fill: #f0838f;
      }

      .cls-220 {
        fill: #f5abb5;
      }
    </style>
  </defs>
  <g id="Calque_1-2" data-name="Calque 1">
    <g>
      <path class="cls-142" d="M379.64.02h.72c0,1.3-.65,2.3-1.94,2.62-1.87.46-3.02,1.66-3.82,3.31-.26.54-.51,1.09-.88,1.55-1.74,2.14-2.74,4.73-4.31,6.98-1.04,1.49-.65,3.02-.26,4.57.05.19.12.38.11.58-.02.13-.07.24-.14.35-.23.24-.51.37-.85.37-1.17-.72-1.61-1.71-1.32-3.14.26-1.34.65-2.64,1.38-3.81.44-.7.49-1.38.15-2.15-.55-1.23-.47-2.64-1.17-3.87-.61-1.07-1.26-1.8-2.62-1.57-.76.13-1.49-.2-2.2-.46-1.15-.42-1.41-.23-1.47,1.02-.02.28,0,.56-.04.84-.15,1.19-.84,2.09-1.77,2.33-.89.23-2.01-.25-2.58-1.33-1.13-2.14-1.7-4.46-1.72-6.89,0-.49.16-.94.52-1.3h18.96c1.52,2.04,2.83,2.14,4.8.35.15-.13.33-.22.48-.35Z"/>
      <path class="cls-50" d="M356.86,18.98c-.48-1.35-.43-2.79-.69-4.18-.58-3.21-.96-6.46-2.84-9.27.2-1.2-.64-2.06-.99-3.07-.27-.79-.89-1.54-.3-2.44h1.68c.24.25.29.56.32.88.16,2.34.96,4.52,1.72,6.71.21.6.5,1.18.86,1.71,1.23,1.81,3.29,1.81,4.56.02.16-.23.32-.47.4-.73.42-1.28,1.26-1.8,2.64-1.73,1.41.07,2.21.77,2.66,2.02.7,1.91,1.14,3.81.19,5.8-.5,1.05-.63,2.22-.54,3.4.07.86.28,1.65.95,2.25.14.13.26.27.35.44.2.46.39.93.2,1.44-.06.12-.16.19-.29.2-.12-.02-.23-.06-.33-.14-2.09-2.62-2.4-5.55-1.56-8.7.37-1.41-.39-2.46-1.78-2.64-1-.12-1.39.23-1.45,1.32-1.17,1.69-1.84,3.56-1.93,5.62-.01.3.09.64-.24.86-.88-.07-1.7.32-2.57.33-.34,0-.7.19-1.02-.09Z"/>
      <path class="cls-142" d="M428.12.02h10.8c.33.67-.2.97-.6,1.23-1.25.83-1.9,2.06-2.64,3.32-.99,1.69-2.04,3.43-3.92,4.41-1.69.88-2.28,2.54-2.57,4.24-.19,1.08-.13,2.23.07,3.34,0,.6.12,1.16.29,1.74.15.49.28,1.14-.62,1.13-.39-.27-.52-.65-.56-1.13-.2-2.47-.14-4.92.03-7.39.13-2.01.28-4.02.23-6.03-.03-1.22-.53-2.4-.69-3.63-.06-.44-.16-.87.17-1.24Z"/>
      <path class="cls-41" d="M381.08.02h2.88c.18.2.22.43.14.69-.72.71-1.06,1.62-1.47,2.53-1.17,2.63-2.29,5.32-4.53,7.3-.55.2-.9.64-1.24,1.09-.38.51-.83.63-1.28.08-.68-.82-1.29-.56-1.91.08-.86.89-1.59,1.89-2.44,2.79-.82.87-.87,1.9-.81,2.99-.2.37-.35.81-.91.71-1.17-1.31-.67-2.62.11-3.84,1.2-1.88,2.34-3.81,3.59-5.66.72-1.06,1.41-2.11,1.95-3.28.56-1.23,1.27-2.27,2.98-2.04,1.03.14,1.42-.86,1.87-1.61.36-.6.38-1.41,1.07-1.82Z"/>
      <path class="cls-22" d="M158.84,3.15c-.96-.7-1.78-1.92-3.13-1.58-1.77.45-3.01,1.72-3.79,3.35-.44.92-.7,1.92-1.07,2.87-.3.76-.79,1.56-1.64,1.51-.77-.04-1.17-.82-1.43-1.57-.35-.99-.49-2.01-.42-3.05.12-1.78-.39-3.26-1.95-4.28-.11-.07-.15-.26-.21-.39,4.48,0,8.96,0,13.44,0,.45.58.63,1.28.85,1.95.18.52.24,1.15-.64,1.18Z"/>
      <path class="cls-40" d="M47.76.02h2.88c.59.65.56,1.35.23,2.11-.39.9-.98,1.64-1.69,2.29-1.78,1.63-3.35,3.4-4.16,5.75-.25.71-.75,1.31-1.29,1.85-1.41,1.41-3.27,1.01-3.96-.88-.44-1.2-.32-2.42.4-3.44,2.09-2.98,4.39-5.78,7.59-7.68Z"/>
      <path class="cls-59" d="M168.97,10.83c-.34,2.56-.67,5.11-1.01,7.67-.3.36-.66.35-1.08.24-1.36-.35-1.94-.06-2.52,1.23-.17.36-.24.77-.45,1.1-.33.54-.72.78-1.16.08,0-1.68,0-3.36-.01-5.05.96-1.36.8-2.89.48-4.36-.29-1.37-.57-2.74-.58-4.14,0-1.22-.33-2.27-1.02-3.25-.67-.95-1.15-2.01-1.56-3.1-.16-.41-.36-.82-.01-1.24h1.2c.36,2.14,1.51,3.99,2.18,6.01.28.84.31,1.72.3,2.6-.01.89.14,1.75.56,2.54.76,1.45,1.91,1.58,3.06.41.43-.44.72-1.27,1.61-.74Z"/>
      <path class="cls-146" d="M426.89,20.19c-.39-.31-.21-.75-.2-1.11.15-3.55-.28-7.07-.49-10.6-.03-.44-.39-.8-.23-1.26.72-1.78.06-3.43-.6-5.03-.26-.63-1.01-.84-1.73-.88-1.13-.05-2.22.16-3.29.49-2.28.69-4.49.46-6.64-.49-.55-.24-1.24-.44-1.19-1.28h14.16c.93,1.94,1.04,4.06,1.28,6.14.05.47.02.96.02,1.44,0,3.39,0,6.77,0,10.15-.01.59.04,1.19-.05,1.78-.09.6-.34,1-1.04.65Z"/>
      <path class="cls-68" d="M412.52.02c.84,1.18,2.2,1.31,3.44,1.67,2.06.61,3.97-.26,5.94-.58,1.24-.21,2.51-.46,3.59.57.24.23.45.43.52.76.27,1.31.59,2.62.68,3.96.04.51-.09.87-.7.82-.32-.71-.6-1.45-.96-2.13-.66-1.25-1.74-1.86-3.16-1.95-1.37-.08-2.71.08-3.99.52-2.83.97-4.99-.02-6.76-2.21-.36-.44-1.01-.7-.99-1.42h2.4Z"/>
      <path class="cls-93" d="M88.79.02h3.12c.51,1.06-.09,1.94-.72,2.57-1.52,1.5-2.56,3.35-3.9,4.98-1.81,2.19-3.7,4.29-6.11,5.84-1.31.84-3.37.28-4.14-1.05-.04-.24-.02-.48.05-.72.08-.23.19-.44.38-.59.18-.07.34,0,.48.11,1.33.72,1.93.73,2.86-.32,1.88-2.13,4.17-3.82,6.1-5.91.88-.95,1.12-2.08,1.32-3.24.08-.48.22-.92.36-1.38.06-.09.13-.18.21-.26Z"/>
      <path class="cls-22" d="M32.62,6.03c-2.04-1.91-4.69-2.6-7.2-3.57-.93-1.17.25-1.69.73-2.43h8.4c.18.35.11.71,0,1.04-.5,1.41-1.23,2.75-1.25,4.31,0,.31-.19.71-.68.65Z"/>
      <path class="cls-22" d="M288.69.02c.07.49-.33.71-.61.96-1.5,1.33-2.26,2.99-2.3,5-.04,1.86-.16,3.73-.21,5.59-.01.6-.08,1.22-.7,1.36-.76.18-1.06-.57-1.17-1.09-.36-1.76.01-3.53,0-5.3,0-1.22.07-2.46-.26-3.64-.43-1.58-1.07-2.05-2.68-2.19-.21-.22-.19-.45,0-.68h7.92Z"/>
      <path class="cls-161" d="M454.52,2.88c-1.6.61-3.34.51-4.97.97-1.47.41-2.97.7-4.45,1.07-.26.07-.54.2-.74.38-1.19,1.11-2.37,2.24-3.55,3.36-.54.3-1,.8-1.7.72-.25-.71.34-1.09.61-1.59.8-1.93,2.71-2.72,4.16-3.97.34-.29.82-.28,1.24-.41,1.49-.46,2.87-1.18,4.34-1.66.55-.18.91-.62,1.26-1.06.29-.39.83-.33,1.16-.66h4.56c.34.84-.23,1.36-.72,1.87-.36.37-.81.64-1.2.99Z"/>
      <path class="cls-54" d="M239.98.02h13.2c1.26.47,2.62.68,3.75,1.49.52.38,1.02.76,1.33,1.34.78,1.48,0,2.96-1.65,3.15-.82.1-1.62.01-2.27-.53-.55-.46-1.17-.66-1.84-.77-.23-.13-.37-.32-.35-.59.18-.33.43-.58.82-.63.68.11,1.3.32,1.81.81.26.25.62.42.97.13.35-.3.37-.7.19-1.09-.33-.72-.89-1.23-1.65-1.45-1.71-.5-3.47-.83-5.2-1.28-.72-.19-1.4.17-2.08.38-2.48.92-5.14.54-7.69,1.02-1.96.37-3.96.42-5.95.43-.21-.01-.4-.07-.56-.21-.2-.52.17-.73.52-.95,1.86-.66,3.78-.92,5.74-1.01.32-.01.64.01.9-.24Z"/>
      <path class="cls-60" d="M47.76.02c-.24.43-.61.71-1.01.99-2.53,1.81-4.46,4.2-6.25,6.68-1.06,1.47-.87,3.37.24,4.38.91.83,1.62.84,2.51,0,.88-.83,1.46-1.83,1.91-2.98.41-1.05.96-2.08,1.8-2.89.8-.78,1.58-1.58,2.38-2.37,1.07-1.06,1.79-2.23,1.29-3.81h.96c.76.37.84.99.65,1.72-.21.75-.58,1.41-1.17,1.91-2.58,2.15-4.77,4.57-5.98,7.78-.32.84-.91,1.59-1.58,2.24-.98.94-1.95.95-2.97.05-1.42-1.25-1.98-3.95-1.28-5.7,1.3-3.23,3.48-5.77,6.1-8h2.4Z"/>
      <path class="cls-74" d="M342.92,3.62c-.66,1.71-1.76,3.21-2.29,5.01-1.03,3.55-2.07,7.09-2.28,10.8,0,.1-.1.2-.16.3-1.15-.21-1.52-1.16-1.95-2.05-.12-.39-.12-.8.05-1.16.78-1.71.89-3.49.68-5.32.05-.26.17-.48.36-.67.81-.29,1.19-.93,1.54-1.7,1.11-2.43,1.68-5.07,3.07-7.38.33-.55.66-1.09,1.23-1.42h.72c.19.78-.44,1.24-.75,1.8-.34.6-.52,1.15-.21,1.8Z"/>
      <path class="cls-202" d="M45.36.02c-.3,1.03-1.21,1.55-1.91,2.22-2,1.9-3.3,4.25-4.27,6.77-.46,1.2.73,4,1.81,4.72.78.52,1.54.55,2.25-.19.75-.79,1.44-1.65,1.8-2.65,1.11-3.04,3.23-5.27,5.64-7.28,1.25-1.04,1.67-2.41.92-3.6h1.44c.69,1.32-.07,2.32-.83,3.21-1.01,1.17-2.11,2.27-3.3,3.26-.52.44-1.04.89-.88,1.69-1.74,1.87-2.8,4.11-3.61,6.49-.37-.33-.68-.17-1.07.05-1.48.84-2.5.65-3.35-.78-1.78-2.96-2.25-5.68-.16-8.59,1.25-1.74,2.09-3.77,3.61-5.34h1.92Z"/>
      <path class="cls-197" d="M252.46,4.58c.71-.19,1.3-.04,1.83.5.85.88,1.98.89,2.97.49,1.34-.53,1.38-2.28.16-3.33-.85-.73-1.86-1.19-2.94-1.52-.47-.14-1.06-.14-1.31-.7h3.6c2.48,1.14,4.96,1.26,7.44,0h1.44c.25.33.07.57-.15.82-1.83.79-3.5,1.79-4.79,3.38-.45.56-.94,1.06-1.2,1.74-.14.37-.26.75-.64.97-1.55.58-2.95.03-4.33-.58-.76-.33-1.49-.71-2.3-.94-.16-.14-.21-.32-.19-.52.06-.2.15-.36.4-.31Z"/>
      <path class="cls-55" d="M367.41,20.66c-1.54-1.16-1.24-2.81-1.12-4.38.05-.62.25-1.27.53-1.83,1.04-2.09.32-4.02-.46-5.96-.56-1.4-1.76-1.23-2.93-1.28-1.07-.04-1.21.76-1.49,1.43-.92,2.16-2.81,2.98-4.56,1.98-.64-.36-.98-.95-1.26-1.55-1.33-2.87-2.39-5.81-2.38-9.04h.96c.37.36.24.82.24,1.25-.03,2.27.52,4.42,1.4,6.49.29.67.66,1.25,1.34,1.61,1.23.65,2.48.22,3.03-1.08,1.04-2.47,1.04-2.42,3.69-2.37,1.67.03,2.76.81,3.23,2.33.68,2.17,1.31,4.36.04,6.59-.47.82-.67,1.79-.73,2.76-.04.67-.05,1.34.37,1.95.22.31.4.71.1,1.11Z"/>
      <path class="cls-27" d="M77.27,12.26c.85,1.24,2.76,1.57,3.95.75,3.04-2.1,5.33-4.87,7.47-7.84.69-.95,1.25-2.06,2.32-2.81.61-.43.92-1.43.89-2.34h1.44c.22,1.26-.34,2.27-1.02,3.24-.63.9-1.52,1.6-2.09,2.54-.62.8-1.23,1.6-1.85,2.41-.86.25-1.39.93-1.94,1.55-1.15,1.29-2.41,2.45-3.6,3.69-.74.77-1.68,1.23-2.6,1.69-1.37.67-3.11-.31-3.5-1.84.06-.41-.12-.93.53-1.03Z"/>
      <path class="cls-71" d="M162.22.02h2.16c.29.31.2.67.09,1.01-.56,1.91-.19,3.7.65,5.44.28.58.55,1.22,1.29,1.26.75.04,1.06-.61,1.41-1.14,1.36-2.09,2.78-4.15,3.52-6.57h.48c.6.83.19,1.62-.15,2.37-.49,1.09-1.15,2.09-1.84,3.07-.67.96-1.15,1.99-1.36,3.16-.13.75-.37,1.47-.8,2.11-.49.73-1.14,1.34-2.06,1.16-.98-.19-1.55-.93-1.72-1.93-.24-1.49-.11-3.03-.62-4.48-.48-1.35-1.12-2.64-1.25-4.1-.04-.48-.18-.95.19-1.36Z"/>
      <path class="cls-163" d="M429.08,16.58c-.85-2.67.2-6.98,2.92-8.12,1.69-.71,2.58-2.48,3.4-4,.76-1.39,1.47-2.68,2.86-3.51.35-.21.65-.47.66-.93h4.08c-.02.88-.77.88-1.33,1.05-2.36.69-4.14,2.07-5.25,4.28-1.48,2.02-2.94,4.05-4.63,5.89-1.13,1.23-1.71,2.65-1.91,4.26-.05.39,0,.8-.29,1.13-.18.09-.35.08-.51-.06Z"/>
      <path class="cls-106" d="M367.41,20.66c-1.15-2.17-.8-4.29.18-6.41,1.1-2.37.28-4.6-.68-6.77-.35-.78-1.11-1.23-2.04-1.22-.4,0-.8.03-1.2,0-1.93-.16-1.97-.18-2.49,1.6-.36,1.23-1.05,2.07-2.34,2.22-.97.11-2.19-.89-2.71-2.02-1.18-2.56-1.57-5.24-1.43-8.03h.72c-.59,2.92.26,5.57,1.53,8.13.42.85,1.21,1.35,2.15,1.14,1-.22,1.46-1.05,1.58-2.03.06-.51,0-1.04.03-1.55.03-.85.52-1.17,1.28-.88,1.23.47,2.43.97,3.81.57.34-.1.77.25.99.59.78,1.23,1.67,2.42,1.61,3.99-.02.48.2.87.43,1.22.55.85.34,1.61-.18,2.36-.8,1.14-1.09,2.47-1.41,3.78-.28,1.17.18,2.13,1.15,2.84,0,.49-.23.73-.72.72-.08-.08-.16-.16-.24-.24Z"/>
      <path class="cls-22" d="M208.27,4.35c-.76-1.57-1.77-2.97-2.85-4.33h12.48c.07.64-.43.72-.84.76-2.49.24-4.41,1.7-6.42,2.97-.72.45-1.38,1.16-2.36.6Z"/>
      <path class="cls-144" d="M72.69,6.27c-1.36-2.31-3.33-3.77-5.93-4.45-.65-.17-1.37.06-1.95-.4-.4-.55-.35-1.02.24-1.4h6.48c1.49,1.48,2.06,3.35,2.17,5.37.03.54-.16,1.17-1,.88Z"/>
      <path class="cls-20" d="M335.04,19.45c-.08-3.32-.38-6.63-1.29-9.83-.42-1.49-1.21-2.89-1.83-4.32.51-1.2-.24-2.1-.77-3.02-.41-.71-.97-1.35-.7-2.26h1.44c.54.42.7,1.03.84,1.67.18.77.29,1.56.47,2.34.57,2.39,1.54,4.59,2.78,6.68.79,1.34.46,2.79.55,4.2,0,.86-.39,1.66-.36,2.52-.46.63-.04,1.75-1.13,2.02Z"/>
      <path class="cls-14" d="M230.85,8.21c-1.66-.74-2.82-2.15-4.29-3.16-.58-.99-1.48-1.62-2.43-2.19-.78-.47-1.58-.93-2.26-1.53-.37-.33-.8-.69-.6-1.3h4.32c.08.09.21.16.24.26.39,1.45,1.58,2.34,2.39,3.48,1.01,1.42,2.32,2.49,3.59,3.63.11.04.22.08.33.13,1.45.52,2.87,1.12,4.45,1.07.35-.01.72.02.97.33-.03.55-.46.3-.72.32-2.09.18-4.06-.34-6-1.04Z"/>
      <path class="cls-153" d="M221.26.02c.49,1.31,1.73,1.8,2.79,2.45.89.54,1.71,1.13,2.4,1.9.18.2.45.39.11.68-1.29-.51-2.23-1.57-3.45-2.22-1.31-.71-2.56-1.12-4.02-.66-4.02-1.36-6.48,1.51-9.29,3.42-.19.13-.31.36-.54.45-.39-.53-.87-1.01-.98-1.7.63.06,1.19-.15,1.68-.49,2.32-1.57,4.57-3.28,7.54-3.44.14,0,.27-.26.41-.4,1.12,0,2.24,0,3.36,0Z"/>
      <path class="cls-102" d="M429.56,16.58c-.15-2.46.86-4.46,2.51-6.17,1.41-1.46,2.53-3.14,3.75-4.74.11-.15.31-.24.46-.36,1.7-2.62,4.02-4.2,7.22-4.42,2.18-.15,4.33-.59,6.52-.63.24,0,.47-.08.66-.23h1.2c-.04.62-.66.45-.96.72-.78.44-1.65.55-2.5.78-1.85.25-3.7.42-5.55.6-1.31.13-2.5.58-3.48,1.44-1.17,1.01-2.32,2.06-3.16,3.39-.81,1.28-1.87,2.37-2.75,3.61-1.09,1.54-1.74,3.3-2.62,4.95-.35.66.09,1.44-.33,2.09-.07.11-.17.19-.28.24-.68-.18-.97-.57-.69-1.26Z"/>
      <path class="cls-73" d="M83.51.02h.96c.02.92-.72,1.04-1.34,1.24-1.65.54-3.18,1.23-4.35,2.59-.88,1.03-1.57,2.12-1.62,3.5-.05,1.35-.22,2.69-.24,4.04q-.41,1.16-1.05.88c-.23-.95-.19-1.9-.02-2.84.22-1.25.14-2.45-.32-3.64-.28-.74-.51-1.5-.51-2.32,0-1.92,1.43-3.23,3.34-2.92,1.78.28,3.48.05,5.15-.54Z"/>
      <path class="cls-155" d="M167.5.02h3.12c.35.38.53.81.27,1.31-.81,1.55-1.52,3.17-2.7,4.51-.58.67-1.23,1.19-2.18.76-.8-.36-1.09-1.17-.87-2.26.34-1.68,1.03-3.17,2.35-4.32Z"/>
      <path class="cls-211" d="M162.22.02c.06,1.23.2,2.47.7,3.6.85,1.93,1.12,3.96,1.22,6.03.05,1,.59,1.74,1.48,1.96.78.2,1.42-.36,1.8-1.08.19-.35.43-.7.48-1.08.3-2.44,1.78-4.3,3.02-6.29.6-.97,1.01-1.99.9-3.16h.72c.35.4.14.82.02,1.23-.44,1.54-1.21,2.92-2.16,4.2-.67.9-1.08,1.84-.71,2.98-.16.82-.34,1.64-.73,2.39-.57-.09-.83.26-1.13.68-.57.79-1.27,1.56-2.38,1.19-.96-.32-1.49-1.13-1.76-2.11-.23-.85-.3-1.72-.28-2.6.04-1.57-.55-2.97-1.29-4.3-.64-1.15-1.01-2.34-.86-3.66h.96Z"/>
      <path class="cls-84" d="M83.51.02c-1.44,1.17-3.14,1.15-4.81.93-2.55-.34-3.94,1.18-3.2,3.68.41,1.37,1.09,2.71.78,4.18-.26,1.23-.18,2.46-.21,3.69.29.29.29.65.26,1.02-.17.6-.32,1.21-1.18.9-.18-1.19-.37-2.39-.55-3.58.7-1.76.49-3.53.03-5.29-.35-1.32-.65-2.64-.57-4.01.03-.57.09-1.12.58-1.51h8.88Z"/>
      <path class="cls-62" d="M167.5.02c-.64,1.42-1.78,2.59-2.04,4.23-.14.87-.2,1.6.62,2.09.87.51,1.41-.13,1.91-.7,1.15-1.33,1.87-2.93,2.69-4.46.22-.41-.17-.76-.06-1.15h.72c.26,1.67-.97,2.79-1.59,4.12-.49,1.04-1.17,1.99-1.83,2.93-.35.51-.71,1.15-1.46,1.08-.78-.08-1.2-.64-1.55-1.33-1.12-2.21-1.29-4.46-.52-6.8h3.12Z"/>
      <path class="cls-62" d="M381.08.02c-.49,1.12-.79,2.33-1.68,3.25-.46.47-.93.75-1.59.5-.8-.31-1.38.1-1.7.71-1.93,3.65-4.34,7.01-6.5,10.52-.68,1.1-.47,2.16-.06,3.25.3.33.09.7.11,1.06-.11.26-.22.52-.59.38-.77-2-.88-3.82.32-5.86,1.75-2.96,3.75-5.77,5.37-8.81.6-1.12,1.47-2.16,2.82-2.4,1.54-.27,2.34-1.21,2.77-2.6h.72Z"/>
      <path class="cls-15" d="M231.58,7.7c-1.98-1.49-3.3-3.62-5.08-5.31-.55-.53-.63-1.56-.92-2.36,1.2,0,2.4,0,3.6,0,.61.33,1.22.67,1.74,1.14.25.23.59.41.43.85-1.17,1.07-1.23,1.55-.32,2.85.61.87,1.21,1.72.55,2.83Z"/>
      <path class="cls-180" d="M38.12,12.27l-.67-1.22c.3-.47.32-.97.18-1.49-.19-.73-.31-1.48-.49-2.21-.8-3.26.27-5.71,3.17-7.33h1.92c.28.37.06.69-.13.99-.76,1.18-1.33,2.46-2.09,3.63-1.3,2-1.87,4.11-1.16,6.48.16.54.51,1.4-.73,1.16Z"/>
      <path class="cls-194" d="M38.12,12.27c.53-.07.77-.26.6-.87-.86-2.98-.11-5.6,1.69-8.06.74-1.01,1.23-2.21,1.83-3.32.4,0,.8,0,1.2,0-.97,1.63-1.94,3.26-2.93,4.88-.23.37-.48.73-.74,1.08-2.05,2.79-.62,6.67.97,8.47.67.76,1.74.63,2.77-.23.2-.17.36-.53.67-.4.38.15.16.56.23.85-.28.61-.09,1.34-.48,1.92-.33-.25-.58-.68-1.11-.45-.7.29-1.38.26-2.04-.12-.37-.22-.67-.02-.99.14-.56-1.3-1.12-2.6-1.67-3.9Z"/>
      <path class="cls-22" d="M11.52,2.14c-1.83-.16-3.62-.88-5.49-.58C4.03,1.88,1.99,1.49,0,1.94Q0,.02,1.88.02h8.92c.34.67,1.52,1.06.72,2.12Z"/>
      <path class="cls-194" d="M17.28,6.97c-.51-1.32-1.08-2.62-2.18-3.58.18-.5-.04-.87-.31-1.29-.4-.64-1-1.21-.88-2.07h1.68c.76,1.01,1.04,2.23,1.57,3.35.38.82.67,1.93,1.75,1.9,1.07-.03,1.47-1.07,1.87-1.96.48-1.06.48-2.26,1.05-3.29h1.68c.21.49-.16.82-.34,1.19-.29.61-.55,1.22-.39,1.92-1.02.91-1.27,2.2-1.65,3.41-.16,0,.03-.06-.11-.02-1.22.37-2.48.43-3.75.43Z"/>
      <path class="cls-53" d="M333.57.02h3.6c.37.44.09.83-.12,1.21-.56,1.02-1.07,2.06-1.5,3.14-.67,1.7-.59,2.1.74,3.38.17.16.39.29.49.52.02.71.12,1.43-.29,2.09-.78.01-1.07-.64-1.37-1.14-1.37-2.37-2.1-4.93-2.12-7.68,0-.57.07-1.11.56-1.5Z"/>
      <path class="cls-45" d="M59.37,2.47c-2.12.35-3.81,1.77-5.83,2.36-.34.14-.76.28-.97-.07-.2-.34.1-.67.38-.92.15-.13.29-.28.46-.38,1.39-.81,2.42-1.92,2.99-3.44h5.52c-.04,1.05-.99,1.07-1.63,1.44-.42.24-1.08.25-.92,1.01Z"/>
      <path class="cls-38" d="M274.53.02h2.4c.34.8-.34,1.07-.8,1.37-1.25.8-2.63,1.34-4.02,1.82-.83.29-1.68.5-2.51.77-1.9.61-3.91-.46-4.31-2.25.22-.46.53-.74,1.08-.61.64.8,1.47.85,2.37.59.61-.17,1.22-.39,1.87-.33,1.53.15,2.8-.42,3.93-1.38Z"/>
      <path class="cls-117" d="M428.12.02c.21,1.39.27,2.82.84,4.13.17.39.11.77,0,1.16-.2.7-.17,1.41-.02,2.12.07.31.16.64.09.93-.68,3.1-.48,6.23-.35,9.36.03.61,0,1.22.39,1.74.51.87.52,1.85.61,2.81-.06.28-.18.52-.46.65-.34.05-.54-.14-.7-.41-.48-.8-.67-1.65-.68-2.61-.02-5.23.16-10.45-.09-15.68-.05-.96-.38-1.87-.48-2.82-.05-.47-.23-.95.12-1.38h.72Z"/>
      <path class="cls-85" d="M160.06.02c.29,1.51.95,2.86,1.81,4.1.75,1.09,1.11,2.22,1.1,3.56,0,1.25.06,2.55.54,3.74.55,1.37,0,2.73.1,4.1.04.49-.45.59-.88.58-.32-2.73-.32-5.51-1.17-8.16.63-.58.54-1.23.27-1.95-.5-1.3-1.49-2.34-2.01-3.62-.3-.74-.84-1.49-.25-2.34h.48Z"/>
      <path class="cls-52" d="M265.41,1.7c.84,1.87,2.59,2.54,4.45,1.88,1.74-.61,3.53-1.08,5.18-1.93.75-.39,1.66-.62,1.89-1.63h1.2c-.1,1.2-.88,1.91-1.86,2.4-2.18,1.1-4.48,1.84-6.85,2.41-.82.2-1.62.41-2.25,1.01-.16.08-.33.1-.5.05-.31-.29-.64-.56-1.01-.77.4-.63.21-1.12-.36-1.54-.56-.41-.75-.99-.76-1.66.02-.11.07-.22.14-.31.27-.14.55-.45.74.09Z"/>
      <path class="cls-164" d="M77.52,11.06c0,.2-.05.38-.24.48-.1-.08-.17-.18-.21-.3-.81-4.95,2.85-8.33,5.76-9.84.82-.42,1.62-.84,2.37-1.37h2.64c.3.83-.5.8-.86,1.12-3.78.72-6.01,3.44-8.11,6.31-.43.59-.27,1.3-.39,1.96-.21.61-.25,1.32-.95,1.65Z"/>
      <path class="cls-8" d="M17.28.02h2.88c1.02,1.26,1.06,3.08.1,4.27-.81,1-1.83,1.04-2.58,0-.95-1.32-1.04-2.77-.4-4.27Z"/>
      <path class="cls-58" d="M267.09,5.78c.24-1.01,1.19-1,1.89-1.16,2.26-.5,4.39-1.31,6.54-2.15,1.24-.48,1.97-1.39,2.62-2.45h1.2c.33.4.05.82.04,1.23-1.46,1.02-2.91,2.04-4.37,3.07-.66-.22-1.29-.03-1.84.27-1.63.86-3.48.86-5.19,1.38-.3.09-.64.09-.89-.19Z"/>
      <path class="cls-34" d="M40.32.02c-.54.95-1.66,1.32-2.22,2.3-.83,1.47-1.15,2.94-.73,4.58.26,1,.45,2.01.69,3.02.14.59.11,1.04-.62,1.14-.16-.24-.31-.49-.47-.73.07-1.55-.65-2.91-1.09-4.33-.7-2.26.27-4.79,2.26-5.97h2.16Z"/>
      <path class="cls-107" d="M336.69,8.18c-1.39-.42-2.15-1.76-1.72-3.07.47-1.44,1.12-2.8,1.87-4.1.18-.32.37-.6.33-.98h1.68c.01.89-.28,1.7-.71,2.45-.44.77-.71,1.59-1.03,2.4-.35.9-.3,1.78.05,2.66-.04.3.01.67-.47.64Z"/>
      <path class="cls-112" d="M336.93,7.46c-.68-.88-.43-1.81-.08-2.7.63-1.59,1.33-3.16,2-4.74.88,0,1.76,0,2.64,0,.33.48.05.88-.25,1.17-1.89,1.79-2.78,4.14-3.73,6.47-.29.23-.43,0-.57-.2Z"/>
      <path class="cls-67" d="M274.53.02c-.52,1.2-1.6,1.55-2.73,1.66-1.1.1-2.19.11-3.29.41-.72.2-1.92.61-2.14-.86.08-.88,1.08-.66,1.44-1.2h6.72Z"/>
      <path class="cls-108" d="M85.19.02c-.4,1.04-1.46,1.16-2.28,1.6-2.21,1.2-3.83,2.94-5.04,5.11-.8,1.44-.58,3.02-.61,4.56-.13.14-.21.37-.48.24-.4-1.49-.07-2.99.13-4.43.48-3.43,2.93-5.14,6.02-6.1.63-.2,1.2-.38,1.54-.99h.72Z"/>
      <path class="cls-131" d="M343.17.02c-2,2.73-2.73,6.04-4.09,9.06-.34.75-.49,1.69-1.67,1.5-.53-.9-.46-1.81-.02-2.72.24-.45.44-.92.84-1.28.77-.71,1.27-1.6,1.7-2.55.63-1.4,1.23-2.84,2.29-4h.96Z"/>
      <path class="cls-3" d="M450.68.02c-.85.87-2.01.51-3.02.69-1.99.36-4.02.45-6.01.8-1.63.28-2.88,1.3-3.99,2.48-.44.46-.83.98-1.38,1.31.28-1.39,1.31-2.24,2.32-3.05.93-.75,2.02-1.27,3.22-1.51.48-.09.93-.24,1.18-.72h7.68Z"/>
      <path class="cls-120" d="M77.52,11.06c.24-.56.48-1.12.72-1.68,2.69-2.13,5.37-4.28,7.37-7.13.34-.49.86-.83,1.27-1.26.23-.41.95-.33.96-.96h.96v.24c-1.9,2.96-4.16,5.58-6.95,7.74-1.04.8-1.99,1.7-2.91,2.63-.32.32-.58.79-1.17.66-.08-.08-.16-.16-.24-.24Z"/>
      <path class="cls-174" d="M17.28.02c.11,1.09-.27,2.2.18,3.29.31.74.71,1.47,1.53,1.45.8-.02,1.21-.74,1.49-1.5.44-1.15-.04-2.18-.32-3.25h1.68c-.16,1.84-.5,3.64-1.82,5.04-.91.97-1.55.93-2.32-.16-1.04-1.47-1.56-3.19-2.1-4.89h1.68Z"/>
      <path class="cls-211" d="M427.4.02c1.34,6.17.5,12.43.7,18.65.04,1.36.1,2.68.74,3.91-.5.31-.76-.06-.91-.4-.24-.53-.65-.88-1.02-1.28,0-.23,0-.47,0-.7.54.03.78-.21.75-.77-.03-.55,0-1.09,0-1.64.28-1.81.1-3.64.11-5.46,0-1.62.16-3.25-.11-4.86.09-2.06-.32-4.06-.79-6.04-.11-.47-.18-.92-.17-1.39h.72Z"/>
      <path class="cls-146" d="M74.63.02c-.46,1.69-.34,3.38.22,5.01.56,1.62.5,3.27.5,4.93,0,.52-.21.83-.75.87-.35-.78-.79-1.53-.88-2.41.39-.4.49-.86.45-1.41-.14-2.03-.5-4.01-1.37-5.87-.2-.42-.39-.81.15-1.12h1.68Z"/>
      <path class="cls-72" d="M454.52,2.88c0-.4.24-.67.55-.84.83-.44,1.18-1.17,1.36-2.02,1.16,0,2.32,0,3.48,0,.15,0,.44-.15.36.23-1.32,2.2-3.32,2.88-5.76,2.62Z"/>
      <path class="cls-53" d="M119.51.02h2.4c1.1.88,1.05,3.2-.08,4.03-.41.31-.81.18-1.23.04-1.35-.96-1.77-2.54-1.09-4.07Z"/>
      <path class="cls-211" d="M333.57.02c-.61,3.88.23,7.35,2.88,10.32.09.1.14.21.16.34.16.81.21,1.64.28,2.45.06.66.17,1.42-.68,1.76.23-2.08-.36-3.88-1.42-5.72-1.31-2.27-2.03-4.84-2.39-7.46-.08-.61-.47-1.09-.51-1.69h1.68Z"/>
      <path class="cls-213" d="M352.05.02c-.1,1.73,1.07,3.03,1.57,4.56.14.42.48.83-.28.95-1.28-1.79-2.53-3.61-4.4-4.86-.19-.22-.2-.43,0-.65h3.12Z"/>
      <path class="cls-152" d="M159.58.02c-.08,1.35.55,2.46,1.25,3.53.63.97,1.25,1.95,1.55,3.07.18.68.18,1.31-.81,1.31-.47-1.85-1.47-3.39-2.74-4.78.58-.3.64-.75.31-1.26-.36-.57-.56-1.19-.53-1.87h.96Z"/>
      <path class="cls-122" d="M35.92,8.93c-.47-.48-.93-.97-1.4-1.45-.02-.48-.15-.95-.31-1.39-.9-2.47-.1-4.43,1.79-6.07h1.2c.25.33.08.61-.15.85-2,2.08-2.23,4.29-.61,6.72.56.85.35,1.2-.52,1.34Z"/>
      <path class="cls-189" d="M72.95.02c-.31.96.41,1.66.7,2.43.66,1.76.66,3.59.92,5.39.07.5-.43.58-.85.57-.35-.71-.69-1.43-1.04-2.14,1.03-.18.75-.92.67-1.57-.2-1.72-1.1-3.17-1.84-4.68h1.44Z"/>
      <path class="cls-156" d="M342.21.02c-1.42,2.62-2.26,5.58-4.56,7.68-.08.09-.16.1-.24,0,.45-2.43,1.61-4.49,3.26-6.29.39-.42.75-.81.82-1.39h.72Z"/>
      <path class="cls-114" d="M35.92,8.93c.93-.25.54-.83.28-1.29-1.73-3.04-1.63-4.32.64-6.89.19-.22.37-.42.36-.73h.96c-1.22,1.4-2.37,2.82-2.16,4.85.11,1.04.48,2,.9,2.94.37.83.48,1.66.08,2.52-.36-.47-.71-.93-1.07-1.4Z"/>
      <path class="cls-11" d="M169.7,8.44c-1-.94-.43-1.86.14-2.67,1.1-1.57,2.08-3.18,2.58-5.05.06-.23.08-.47.12-.7.32,0,.64,0,.96,0,.17,1.33-.8,2.37-.95,3.63-.92,1.62-2.16,3.04-2.85,4.79Z"/>
      <path class="cls-25" d="M36,.02c-.25.98-1.24,1.49-1.52,2.49-.34,1.18-.52,2.28.01,3.46.2.43.65,1,.03,1.51-.63-.48-1.26-.97-1.9-1.45.29-.19.49-.51.46-.8-.23-1.95,1.13-3.43,1.48-5.2h1.44Z"/>
      <path class="cls-43" d="M59.37,2.47c-.9-.31-.57-.62,0-.93.87-.48,1.99-.52,2.55-1.52h3.12c-.28.43-.25.92-.24,1.4-1.89-.04-3.59.84-5.43,1.05Z"/>
      <path class="cls-96" d="M239.98.02c-.04.26-.16.48-.45.46-1.41-.12-2.72.53-4.12.5-.76-.01-1.35.72-2.16.48-1.23.16-2.05-.32-2.4-1.44h9.12Z"/>
      <path class="cls-186" d="M348.93.02c0,.22,0,.43,0,.65-1.25-.4-2.41-.21-3.44.58-.93.71-1.87,1.4-2.57,2.36-.71-.43-.69-.93-.24-1.57.45-.64.81-1.35,1.21-2.02,1.68,0,3.36,0,5.04,0Z"/>
      <path class="cls-158" d="M379.64.02c-.65,1.2-2.45,2.25-3.73,2-.99-.19-1.42-1.03-1.55-2h5.28Z"/>
      <path class="cls-214" d="M119.51.02c.06,1.39-.3,2.9,1.2,3.84.32.2.58.45,1.07.39.54-.07,1.1.13,1.08.88-1,.69-2.08.13-3.11.19-.57-1.32-1.1-2.66-1.94-3.85.31-.45.42-1.01.75-1.45h.96Z"/>
      <path class="cls-76" d="M48.02,8.19c-.63-.11-.5-.41-.28-.85.47-.93,1.44-1.33,2.1-2.06.71-.8,1.54-1.5,2.25-2.29.74-.83,1.07-1.83.95-2.96h.96c.67,1.12.02,2-.63,2.78-.78.94-1.68,1.8-2.61,2.59-.37.31-.74.61-.77,1.14-.65.55-1.31,1.1-1.96,1.65Z"/>
      <path class="cls-12" d="M383.96.74c0-.24,0-.48,0-.72h.24c.85,1.01.56,2.2.5,3.35-.7,1.95-1.84,3.66-2.91,5.42-.38.31-.75.64-1.26.69-.13-.01-.22-.08-.28-.21-.09-.38.09-.71.27-1.01,1.38-2.4,2.86-4.75,3.44-7.52Z"/>
      <path class="cls-55" d="M264.21.02c-1.7,1.64-6.02,1.64-7.44,0h7.44Z"/>
      <path class="cls-72" d="M90.24,5.81c-.06-1.06.92-1.55,1.44-2.17.92-1.1,1.27-2.34,1.67-3.61h1.2c.39.86.02,1.64-.22,2.44-1.36,1.11-2.73,2.23-4.09,3.34Z"/>
      <path class="cls-209" d="M330.45.02c.28,1.62,1.69,2.73,1.98,4.36.1.55.28.94-.51.92-.7-1.2-1.49-2.34-2.47-3.34.26-.64-.33-1.29.03-1.93h.96Z"/>
      <path class="cls-150" d="M388.28.02c-.34,1.3-1.35,2.21-1.96,3.35-.86.11-.96-.57-1.17-1.13-.08-.76-.26-1.53.25-2.22h2.88Z"/>
      <path class="cls-5" d="M122.87,5.06c-.41-.33-.72-.78-1.4-.57-.36.11-.58-.32-.75-.63.61.27,1.03.09,1.31-.51.53-1.13.64-2.25-.11-3.33h.72c.52.58.57,1.46,1.25,1.94-.12,1.3-.45,2.56-.77,3.83-.25-.19-.4-.41-.24-.73Z"/>
      <path class="cls-189" d="M172.55,3.65c-.45-.85.22-1.48.44-2.19.15-.48.34-.96.51-1.44.96,0,1.92,0,2.88,0-1.28,1.21-2.55,2.42-3.83,3.63Z"/>
      <path class="cls-217" d="M49.98,6.54c-.66-.61-.06-.9.33-1.19,1.1-.8,1.98-1.83,2.92-2.8.67-.68.87-1.58.77-2.54h1.2c.52.97-.06,1.66-.63,2.34-.72.85-1.7,1.45-2.37,2.36-.19.25-.47.45-.34.83-.56.45-1.2.77-1.88.99Z"/>
      <path class="cls-211" d="M51.86,5.55c-.57.02-.79-.1-.28-.6.88-.86,1.72-1.77,2.63-2.6.69-.64,1.01-1.4.98-2.32h1.2c.03,1.27-.67,2.14-1.62,2.85-.54.4-1.07.79-1.62,1.17-.24.17-.52.38-.38.65.13.26.5.1.77.14-.51.35-1.07.59-1.67.72Z"/>
      <path class="cls-198" d="M13.92.02c.49.76.76,1.63,1.42,2.3.35.36.53.86-.23,1.06-.55-.25-1.11-.51-1.66-.76-.13-.6-.4-1.1-.86-1.53-.3-.28-.74-.53-.59-1.07h1.92Z"/>
      <path class="cls-10" d="M94.33,2.47c-.32-.85.23-1.62.22-2.44h3.6c-1.09,1.1-2.56,1.61-3.82,2.44Z"/>
      <path class="cls-154" d="M329.49.02c-.11.64.98,1.31-.03,1.93-1.06-.77-2.19-1.37-3.53-1.46-.32-.02-.62-.14-.76-.47h4.32Z"/>
      <path class="cls-209" d="M12,.02c.42.46.82.94,1.26,1.37.4.38.52.76.18,1.23-.71.12-1.27-.37-1.93-.48.41-.92-.79-1.31-.72-2.12h1.2Z"/>
      <path class="cls-167" d="M230.86.02c.57.86,1.44,1.22,2.4,1.44-.16.24-.32.48-.48.72-.05.04-.09.07-.14.11-.48.07-.93,0-1.3-.35-.57-.81-1.65-1.04-2.16-1.92h1.68Z"/>
      <path class="cls-47" d="M385.4.02v2.4c-.01.53.06,1.11-.63,1.32-.12,0-.23-.04-.33-.12,0-1.21.06-2.41-.24-3.6h1.2Z"/>
      <path class="cls-212" d="M22.79,3.14c-.51-.26-.53-.63-.28-1.09.35-.67.68-1.35,1.01-2.02.32,0,.64,0,.96,0,.32.43-.02.74-.2,1.06-.24.43-.4.86-.25,1.35-.41.23-.83.47-1.24.7Z"/>
      <path class="cls-193" d="M123.88,1.96c-1.27-.1-1.02-1.17-1.25-1.94.64,0,1.28,0,1.92,0-.22.65-.44,1.29-.67,1.94Z"/>
      <path class="cls-141" d="M267.81.02c.2.37-.02.43-.32.55-.4.15-.83.29-1.12.65-.42-.04-.63.34-.96.48-.24-.28-.48.08-.72,0-.14-.6.45-.66.72-.96.08-.24.16-.48.24-.72.72,0,1.44,0,2.16,0Z"/>
      <path class="cls-23" d="M118.55.02c-.05.59.23,1.34-.75,1.45-.55-.48-1.1-.97-1.65-1.45.8,0,1.6,0,2.4,0Z"/>
      <path class="cls-146" d="M24.03,2.44c-.62-.09-.53-.45-.33-.85.26-.52.52-1.04.78-1.56.32,0,.64,0,.96,0,.13.9-.84,1.46-.72,2.36-.23.02-.46.04-.69.05Z"/>
      <path class="cls-124" d="M24.71,2.38c-.75-1.09.56-1.55.72-2.36h.72c0,.89-1.26,1.39-.73,2.43-.24-.03-.47-.05-.71-.08Z"/>
      <path class="cls-160" d="M279.38,1.25c-.58-.39.01-.82-.04-1.23.48,0,.96,0,1.44,0,0,.23,0,.45,0,.68-.47.18-.94.36-1.4.55Z"/>
      <path class="cls-7" d="M427.57,94.36c-1.02-.24-1.37-.95-1.38-1.93-.02-3.06.29-6.1.46-9.14.15-2.79.02-5.59.04-8.39.04-4.21.26-8.42.13-12.62-.28-9.15.03-18.29-.2-27.44-.05-1.86.19-3.7.1-5.55.81-.94,1.12-.8,1.69.74.29,1.23.14,2.49-.02,3.69-.5,3.74-.32,7.49-.45,11.24-.15,4.46-.62,8.91-.46,13.39.03.76.05,1.51.21,2.26.95,4.51.53,9.03.16,13.57-.18,2.24-.45,4.49-.22,6.79.31,3.13.52,6.29.34,9.45-.04.62-.31,1.15-.43,1.74-.07.53.27.95.39,1.42.08.33.32.79-.36.78Z"/>
      <path class="cls-22" d="M41.26,47.97c.14-3.79.44-7.57.38-11.36-.05-3.42.36-6.85-.07-10.28-.16-1.27.1-2.6-.1-3.9-.05-.15-.09-.31-.07-.47.06-.53.15-1.07.76-1.22.69-.17.99.33,1.23.86.48,3.72.37,7.46.23,11.18-.13,3.57-.45,7.15-.42,10.73.02,2.22.17,4.44.5,6.64-.38.91-1.14.91-1.9.71-.78-.2-.65-.9-.64-1.48.01-.47-.1-.95.09-1.41Z"/>
      <path class="cls-69" d="M431.44,30.25c-.51,2.28-.61,4.61-.91,6.91-.82,6.29-.22,12.64-.73,18.95-.14,1.78-.34,3.55-.51,5.33-.97-.27-1.48-.97-1.46-1.93.03-2.87-.07-5.73.13-8.6.22-3.12.64-6.26.13-9.42-.26-1.63.22-3.25.31-4.87.12-2.34.79-4.64.48-7,0-.2.06-.38.19-.54.56.86,1.92.11,2.39,1.18Z"/>
      <path class="cls-22" d="M76.99,31.45c.01,1.08.04,2.15.04,3.23,0,3.94.23,7.87.39,11.81.04,1.07.04,2.13.05,3.2-1.56.35-1.85,1.43-1.79,2.85.09,1.94,0,3.89,0,5.83,0,.54.06,1.14-.58,1.44-.37-.97-.46-1.98-.45-3,.09-6.36.12-12.73.34-19.08.07-2.09-.06-4.22.41-6.29.19-.22-.09-.73.38-.75.54-.02.99.23,1.22.76Z"/>
      <path class="cls-196" d="M167.94,19.46c.18.97-.17,1.91-.17,2.87-1.4,1.01-1.61,2.31-1.13,3.91.36,1.19.24,2.38-.77,3.3-1.31.7-1.68,1.93-1.85,3.27-.23,1.81-.33,3.63-.28,5.46.02.75-.11,1.5-.17,2.25-.1,1.26.26,2.43,1.17,3.37.07.12.12.25.15.39.03.57.19,1.16-.29,1.63-1.56-.69-2.15-2.13-2.33-3.61-.36-2.94-.45-5.9.12-8.86.3-1.58.24-3.24.35-4.86.57-.25.76-.71.87-1.31.33-1.69.12-3.4.4-5.09.45-2.72,1.27-3.33,3.94-2.72Z"/>
      <path class="cls-22" d="M257.54,24.02c-.35-3.64-.24-7.32-.99-10.92-.3-1.45-1.05-2.68-1.68-3.97-.26-.66.19-.83.68-.94.31-.07.62.02.94.08,1.41.27,2.6,1.13,3.99,1.47.36.09.73.35.63.86-1.58,3.45-1.18,7.16-1.48,10.79-.49.62-.89,1.28-1.19,2.02-.14.36-.26.89-.89.62Z"/>
      <path class="cls-7" d="M119.97,42.68c.35-7.67.72-15.34.69-23.02,0-3.18-.09-6.37-.25-9.54-.06-1.19,0-2.44-.38-3.62.72-.92,1.02-.95,2.14-.18.61,1.38.33,2.82.25,4.24-.14,2.5-.62,5.02-.55,7.48.09,3.31.09,6.61.16,9.92.05,2.47-.03,4.92-.62,7.36-.35,1.44-.23,3-.35,4.51-.09,1.04-.21,2.06-.51,3.05-.07.25-.16.64-.49.52-.32-.11-.18-.46-.09-.73Z"/>
      <path class="cls-22" d="M33.59,127.56c.17,2.36-.34,4.39-.52,6.45-.07.78-.61,1.49-1.46,1.51-.84.02-1.17-.71-1.36-1.44-.59-2.31-.49-4.63-.37-7,.12-2.33.47-4.58,1.16-6.79.12-.4.15-1.03.65-1.01.57.01.59.64.71,1.1.61,2.45,1.5,4.86,1.19,7.18Z"/>
      <path class="cls-187" d="M336.45,17.78c.57.67,1.04,1.41,1.75,1.95-.41,5.1-1.16,10.19-.82,15.33-.21.64-.78,1.11-.86,1.81-.01.22,0,.44,0,.66,0,.36.09.7.13,1.05,0,.56-.08,1.11-.15,1.67-.06.46-.1.98-.74,1.04-.46-.73-.24-1.55-.25-2.32-.03-1.63.01-3.25.02-4.88.13-1.84.03-3.68-.22-5.51,0-.32,0-.65,0-.97.4-1.72.06-3.48.32-5.22.21-1.41.2-2.85.36-4.27.09-.2.2-.39.47-.34Z"/>
      <path class="cls-22" d="M426.42,173.75c0,.24.03.48.02.72-.02.91-.37,1.67-1.28,1.91-.96.26-1.6-.33-2.01-1.14-.94-1.85-.61-3.83-.4-5.75.21-1.91.7-3.79,1.03-5.69.08-.44.24-.79.65-.91.46-.14.73.23.98.54.78.98.98,2.16,1.02,3.35.05,1.51,0,3.03-.01,4.55-.23.15-.52.06-.76.15-1.2.74-1.05,1.94-1.04,3.08.06.4.26.69.68.58.54-.14.59-.65.68-1.11.03-.11.08-.21.15-.3.1-.07.2-.08.3,0Z"/>
      <path class="cls-50" d="M17.8,25.45c-.02-3.19-.09-6.37.16-9.55.2-2.56.01-5.15-.45-7.69-.03-.08-.07-.17-.03-.22.81-.96,1.9.04,2.84-.4.47-.22.63.42.76.83-.17.45-.23.91-.2,1.39.13,2.9-.31,5.79-.28,8.69-1.87.36-2.05,1.79-2.02,3.29.01.92-.28,1.79-.26,2.7-.08.38.06.86-.52.97Z"/>
      <path class="cls-113" d="M384.68,3.62c.62-.17.31-.9.72-1.2.27.35.42.82.92.95-.99,2.31-1.53,4.77-2.31,7.15-1.32,4.05-3.95,6.97-7.28,9.39-.98.71-1.83,1.62-3.05,1.97-.76-.15-.91-.41-.45-1.01.6-.79,1.33-1.47,2.14-2.07,2.52-1.87,4.65-4.09,6.05-6.93.21-.43.42-.87.48-1.35.15-1.3.57-2.48,1.41-3.49.2-.25.3-.56.35-.88.24-.88.58-1.72,1.01-2.52Z"/>
      <path class="cls-151" d="M429.08,29.3c.6,1.41.07,2.84-.04,4.24-.26,3.34-.72,6.64-.51,10.04.31,4.95-.59,9.9-.46,14.88.03,1.24.37,2.17,1.21,2.98.11,3.6-.08,7.21.24,10.81-.48,1.1-.8,2.27-.77,3.46.06,2.38-.34,4.74-.28,7.12.01.5.07,1.04-.36,1.45-.44-.06-.47-.41-.45-.72.11-1.48-.33-2.94-.23-4.41.17-2.53.25-5.08.7-7.59.34-1.93.07-3.91.12-5.86.05-1.68.04-3.35-.59-4.95-.26-.68-.27-1.4-.26-2.12.02-3.51-.18-7.03.28-10.52.44-3.31-.08-6.61.21-9.91.2-2.26.37-4.52.63-6.77.06-.51-.08-.94-.13-1.41-.01-.3,0-.59.29-.78.15-.05.28-.03.41.06Z"/>
      <path class="cls-136" d="M367.13,35.54c.13,1.15-.22,2.27-.24,3.42-.03,2.27.51,4.53.22,6.79-.29,2.23-.31,4.46-.12,6.66.22,2.62.09,5.23.14,7.84.11,1-.96,1.63-.83,2.63-.15.42.25,1.18-.68,1.11-.33-2.6-.58-5.2-.38-7.83.15-1.89.35-3.77.22-5.69-.2-2.94-.07-5.88.27-8.82.19-1.65.64-3.27.65-4.94.15-.46.11-1.03.75-1.18Z"/>
      <path class="cls-130" d="M77.03,13.46c.53,1.47,2.19,1.93,3.51,1.22,2.69-1.46,4.38-3.97,6.55-5.97.36-.34.67-.84,1.29-.49-.94,2.04-2.51,3.56-4.22,4.93-2.61,2.08-4.21,4.81-5.21,7.94-.12.37-.16.77-.48,1.05-.35-.3-.32-.72-.28-1.11.05-.54-.08-1.03-.36-1.48-.15-.24-.32-.5-.31-.77.1-1.49-.68-2.77-1.01-4.15.03-.45-.2-1.01.51-1.15Z"/>
      <path class="cls-65" d="M119.97,42.68c.02.16.03.32.07.65.51-.95.53-1.89.63-2.74.8-6.84,1.37-13.7.96-20.59-.24-4.11.76-8.13.52-12.22-.03-.52.05-1.04-.24-1.51.32-.75.69-.42.97,0,.19.29.16.66,0,1-.08,2.38-.17,4.76-.25,7.15.02.03.06.07.05.1-.73,3.36.2,6.72.05,10.07-.05,1.18-.19,2.35.09,3.52,0,.96,0,1.92,0,2.89-.49,2.92-1.35,5.78-1.36,8.79,0,1.46-.4,2.91-.7,4.34-.08.4-.2.79-.74.77-.15-.73-.39-1.46-.06-2.21Z"/>
      <path class="cls-144" d="M126.96,192.71c-.2-2.55.61-4.94,1-7.38.07-.42.21-1.18.91-1.02.61.14.66.76.73,1.35.34,2.71.16,5.46.66,8.16.2,1.06.08,2.16-.67,3.05-.74.88-1.31.79-1.98-.17-.88-1.25-.72-2.64-.66-3.99Z"/>
      <path class="cls-44" d="M366.69,36.49c-.05,2.45-.63,4.85-.83,7.29-.18,2.27-.25,4.55-.05,6.79.16,1.8-.11,3.56-.18,5.32-.06,1.63-.19,3.22.03,4.85.15,1.1.06,2.23.07,3.34.48.58.31,1.26.28,1.9-.02.5-.15,1-.02,1.51.05.37.26.74-.02,1.11-1,.01-.83-.88-1.11-1.43.31-1.51.17-3.02.04-4.53-.21-2.47.01-4.93.03-7.39.02-2.82.1-5.64.08-8.47-.02-2.87.33-5.72.58-8.58.11-1.22.13-2.46-.09-3.7-.29-1.66-.24-3.32.11-4.98.51-2.45,1.5-4.77,2.04-7.21.08,0,.16,0,.24,0,.13-.08.25-.05.35.06.08.11.13.23.16.37.17,1.15-.26,2.2-.55,3.27-.67,2.5-1.59,4.96-1.29,7.61.1.95.18,1.89.13,2.84Z"/>
      <path class="cls-36" d="M367.64,22.34c.2,1.45-.35,2.75-.84,4.05-.71,1.88-1.09,3.83-1.23,5.8-.09,1.28.36,2.59.37,3.89.01,2.82-.33,5.62-.65,8.42-.14,1.22-.05,2.47-.05,3.71,0,3.63-.11,7.25-.18,10.87-.04,2.25.17,4.53.17,6.8,0,.47.11.98-.39,1.3-.08-3.24-.37-6.46-.17-9.73.15-2.41-.1-4.86-.01-7.29.1-2.72.09-5.44.13-8.17.29-2.57.49-5.15.23-7.73-.22-2.16-.2-4.31.41-6.39.53-1.83,1.23-3.61,1.64-5.49.17-.17.36-.2.57-.06h0Z"/>
      <path class="cls-63" d="M383.96,6.26c-.3,1.21-1.47,2-1.61,3.28-.09.88-.36,1.69-.66,2.52-.63,1.71-2.01,2.82-3.04,4.21-1.37,1.85-3.53,2.8-5.01,4.51-.32.37-.88.76.04,1.09-1.09.56-2.03,1.32-2.91,2.17-.94-.59-2.14-.9-2.39-2.23,0-.31.01-.61.37-.74,1.9.8,1.95.69,3.54-.71,1.34-1.18,2.77-2.26,4.16-3.38,2.3-1.86,3.98-4.07,4.82-6.91.38-1.28,1.18-2.34,1.89-3.44.17-.26.41-.51.79-.37Z"/>
      <path class="cls-7" d="M367.17,22.34c.09,1.3-.33,2.48-.74,3.69-.94,2.77-1.79,5.49-1.04,8.55.56,2.26-.21,4.65-.2,6.98,0,.14-.24.29-.37.43-.01-4.99-.02-9.98-.04-14.96,0-1.38-.45-2.75-.03-4.13-.09-.46-.28-.96.25-1.26.46-.27.92-.08,1.34.16.24.13.46.3.71.42.04.04.08.08.13.12Z"/>
      <path class="cls-176" d="M428.12,84.24c-.01-3.44.14-6.87.49-10.28.07-.66.23-1.34.91-1.71.25,4.08.27,8.16.31,12.25.02,1.43-.21,2.89.16,4.32-.15.37-.03.77-.1,1.15-.05.27-.18.43-.46.19-.36-1.82-.36-3.67-.47-5.51-.03-.2.11-.53-.13-.58-.23-.05-.13.27-.18.43-.04.37,0,.77-.4,1-.57-.35-.45-.79-.16-1.25Z"/>
      <path class="cls-70" d="M367.64,22.33c-.16,0-.32,0-.48,0,0,0,0,0,0,0-.72-.28-1.12-.89-1.35-1.56-.22-.65-.63-.95-1.25-1.09-.01-1.74-.02-3.49-.05-5.23,0-.63-.05-1.26-.44-1.81-.38-.53-.81-.88-1.46-.39-.43-.04-.55-.31-.45-.67.14-.49.49-.85.97-.97,1.41-.37,3.8.92,3.09,2.88-1.14,3.16-.43,6.11,1.41,8.84Z"/>
      <path class="cls-69" d="M366.69,36.49c-.61-2.32-.74-4.65-.11-6.98.38-1.41.76-2.83,1.17-4.24.25-.88.46-1.77.38-2.69,1.01.61,1.22,1.82,1.94,2.65-2.03,3.14-2.85,6.62-2.95,10.32-.15.32-.29.63-.44.95Z"/>
      <path class="cls-100" d="M76.79,14.66c.42,1.28,1.25,2.47.98,3.93-.02.1.02.26.09.33.94.93.6,2.1.62,3.21-.48,1.57-.54,3.25-1.21,4.77-.05-1.65-1.21-2.99-1.29-4.63.28-2.09-.19-4.18.05-6.27.05-.46-.02-.97.37-1.33.12-.09.25-.1.38-.02Z"/>
      <path class="cls-80" d="M259.62,22.58c0,1.44,0,2.88,0,4.32-.38,3.71-.84,7.41-.83,11.15,0,.14,0,.28,0,.42,0,.99.07,1.99-.09,2.97-.15.44-.13.91-.21,1.36-.06.34-.05.85-.68.62-.09-1.76-.19-3.52-.28-5.28.17-1.06.22-2.14.2-3.21-.07-3.23.1-6.46.41-9.68.1-1.04.05-2.31,1.47-2.69Z"/>
      <path class="cls-211" d="M167.94,19.46c-.32.19-.64.26-1.02.18-1.38-.26-2.17.23-2.45,1.63-.19.96-.33,1.96-.31,2.93.03,1.24-.18,2.44-.28,3.66-.06.66-.3,1.22-1.15.71-.17-2.48.32-4.96.02-7.44.44.26.78.36.97-.31.16-.57.36-1.17.7-1.64.58-.8,1.31-1.46,2.4-.78.38.24.75.18,1.14.09,0,.32-.02.64-.02.96Z"/>
      <path class="cls-162" d="M431.44,30.25c-.32-.17-.53-.5-1.04-.34-.6.18-1.05-.15-1.08-.86-.02-1.58.28-3.13.52-4.69.71-.68,1.33-1.43,1.95-2.2.19-.23.51-.47.83-.3.3.16.19.47.06.72.17,1.54-.73,2.88-.79,4.39-.04,1.09-.3,2.17-.46,3.26Z"/>
      <path class="cls-89" d="M427.4,102.52c1.45-.04,1.68,1.1,1.85,2.1.24,1.42.47,2.87.27,4.33-.18.2-.4.21-.63.12-.09-.06-.17-.14-.24-.23-.1-.11-.15-.36-.3-.31-.27.1-.13.41-.2.62-.24,1.25-.09,2.52-.19,3.77-.05.55.04,1.3-.92,1.21-.13-.2-.22-.43-.21-.67,0-3.4-.19-6.81.24-10.2.04-.28.13-.54.33-.75Z"/>
      <path class="cls-208" d="M168.43,29.29c.5,4.07.93,8.14.71,12.24-.76.79-1.05,1.88-1.75,2.71-.85,1-1.88.94-2.42-.15.03-.12.1-.2.22-.26.5-.01,1,0,1.34-.48,2.12-2.1,1.98-4.75,1.73-7.4-.07-.71.06-1.57-.78-2.01-.45-.94-.59-2-1.09-2.93-.09-.5.05-.96.21-1.41.51-.61,1.21-.2,1.82-.32Z"/>
      <path class="cls-135" d="M432.69,22.6c-.04-.18-.08-.37-.12-.55-.4.09-.71.31-.9.67-.36.71-.78,1.35-1.63,1.55-.31-.62-.05-1.27-.09-1.91.58-.93,1.19-1.84,1.33-2.98.11-.91.91-1.44,1.38-2.15.8-1.07,1.65-2.07,3.01-2.44.35.18.26.56.38.84-2.08,1.65-3.27,3.74-3.15,6.47,0,.2-.01.4-.22.51Z"/>
      <path class="cls-44" d="M75.09,59.81c.29-.47.26-.99.26-1.51,0-2.27,0-4.54,0-6.81,0-1.51.63-2.04,2.12-1.81,0,1.52,0,3.04,0,4.56-1.09.56-1.48,1.47-1.33,2.66.04.35,0,.72-.08,1.07-.33,1.29-.28,2.49.76,3.48-1.1.37-1.6-.1-1.73-1.65Z"/>
      <path class="cls-190" d="M168.43,29.29c-.5.38-1.1.13-1.64.24-.38.17-.69.05-.96-.25.86-1.07.79-2.24.42-3.46-.53-1.76.02-3.02,1.53-3.51.2,1.89.41,3.78.6,5.67.04.43.03.86.05,1.29Z"/>
      <path class="cls-33" d="M428.84,29.29c-.19.1-.24.28-.24.48-.16.14-.32.14-.48,0-.32-.58-.59-1.33-1.4-.48.03-2.32-.28-4.65.21-6.95.82-.43,1.03.18,1.3.74.67,1.38.36,2.92.67,4.36.07.35.04.72.13,1.07.04.29-.03.55-.2.79Z"/>
      <path class="cls-77" d="M267.09,5.78c1.91-.48,3.91-.58,5.76-1.4.65-.29,1.42-1.07,2.16-.06-1.57,1.32-3.27,2.2-5.42,1.96-2.03-.23-3.92.22-5.63,1.38-.4-.14-.86.54-1.22-.09.72-1.26,2.49-2.08,3.86-1.8.17,0,.33.01.5.02Z"/>
      <path class="cls-105" d="M259.62,22.58c-.89.6-1.08,1.6-1.13,2.51-.18,3.55-.68,7.09-.52,10.66.04.83-.13,1.64-.44,2.41,0-4.72,0-9.43,0-14.15.56-.1.54-.6.73-.98.32-.65.43-1.49,1.35-1.66,0,.4,0,.8,0,1.21Z"/>
      <path class="cls-77" d="M436.05,15.62c-.66-.06-.36-.45-.27-.77-.06-.26.06-.47.21-.65,1.07-1.24,1.84-2.66,2.45-4.16.13-.31.21-.71.7-.67.53-.3.93-.9,1.67-.71-.8,2.86-1.94,5.48-4.76,6.96Z"/>
      <path class="cls-21" d="M253.66,7.9c-1.52-.79-3.1-1.09-4.81-.7-.45.1-.95,0-1.43-.02.17-1.03,1.17-.98,1.81-1.39.51-.12,1.03-.1,1.54-.11,2.22-.04,4.26.81,6.34,1.4.82.23,1.68-.23,2.44.27.3.61-.17.8-.57,1.03-1.19.27-2.29-.09-3.37-.5-.68-.25-1.3-.31-1.96,0Z"/>
      <path class="cls-61" d="M258.46,38.17c-.2-3.06.43-6.08.52-9.13.02-.72.42-1.42.64-2.14.34,1.75.33,3.51.24,5.28-.19,1.35.01,2.71-.1,4.06-.07.84-.06,1.83-1.3,1.93Z"/>
      <path class="cls-113" d="M217.22,2.92c-.96.7-1.69,1.58-2.34,2.59-.94,1.47-2.8,1.86-4.66,1.19-.07-.8.21-1.39,1.01-1.67.43.62.97.65,1.51.21.92-.75,2.03-1.39,1.83-2.86,1.01-.44,1.91-.32,2.66.54Z"/>
      <path class="cls-169" d="M426.43,115.7c-.65-.55-.81-1.39-.86-2.11-.22-3.32-.21-6.65.59-9.92.08-.33.2-.59.51-.74.33.3.39.7.33,1.1-.45,3.36-.09,6.73-.22,10.1-.02.54.1,1.13-.36,1.58Z"/>
      <path class="cls-210" d="M249.1,6.02c-.44.56-1.3.51-1.67,1.16-3.07.43-5.94,1.68-9.05,2.01-2.56.27-5.02.44-7.37-.81-.06-.03-.1-.11-.15-.17,1.11-.21,2.02.53,3.07.66,1.23.15,2.43.56,3.66.03.05-.05.09-.09.14-.14,3.42-1.22,7-1.91,10.45-3.03.34,0,.68,0,.94.29Z"/>
      <path class="cls-118" d="M76.55,14.66c-.26,1.7-.43,3.41-.07,5.11.19.89-.37,1.7-.16,2.57-.29.44.09,1.03-.32,1.44-.16.18-.33.32-.6.24-.12-3.2.09-6.41-.24-9.6.41-.11.83-.2.92-.72.68.06.39.61.48.96Z"/>
      <path class="cls-101" d="M426.43,115.7c.08-4.26-.17-8.52.24-12.77.15-.3.35-.51.73-.41-.29,3.91-.26,7.83-.23,11.74.16.44.06.92.22,1.37.03.31.03.62-.25.84-.33-.17-.61-.39-.71-.77Z"/>
      <path class="cls-176" d="M211.2,5.07c-.33.54-.66,1.09-.98,1.63-.32-.22-.65-.43-.97-.65,0-.35.17-.64.45-.81,1.81-1.13,3.36-2.67,5.44-3.39,1.41-.49,2.7-.61,3.95.33-.62.25-1.24.5-1.87.75-.89-.19-1.71-.91-2.69-.28-.99.98-1.7,2.33-3.33,2.43Z"/>
      <path class="cls-178" d="M357.12,26.65c-.08-2.16-.16-4.31-.24-6.47.73-.79,1.7-.75,2.63-.69.71.05.84.6.74,1.21h0c-1.38.93-2.06,2.21-2.24,3.88-.08.7.24,1.76-.9,2.07Z"/>
      <path class="cls-1" d="M20.6,21.37c0,1.45,0,2.89,0,4.34-.17.4-.13.89-.48,1.2-.44.38-.93.85-1.4.02,1.27-1.18,1.14-2.66.9-4.16-.48,1.03-.34,2.19-.67,3.26-.1.32.05.75-.39.93-1.02-.65-.28-1.61-.44-2.42.3-1.24.13-2.54.43-3.77.13-.52.08-1.3.96-1.26.81.04.85.71.97,1.29.04.19.02.4.11.58Z"/>
      <path class="cls-204" d="M253.66,7.9c.36-.82.95-.76,1.64-.46,1.16.51,2.36.83,3.64.74.99.36,2.13.34,2.91,1.21-.25.4-.5.8-.74,1.2-.12-.27-.33-.44-.6-.54-1.42-.51-2.84-1.05-4.28-1.53-.58-.19-1.21-.29-1.36.6-.4-.41-.8-.82-1.2-1.22Z"/>
      <path class="cls-176" d="M122.83,33.86c.41,1.66.29,3.34.24,5.02-1.11.68-1.04,1.89-1.32,2.95-.01.22-.02.44-.02.66,0,.17,0,.34,0,.51,0,.23-.02.46-.06.69-.09.4-.19.79-.29,1.19-.2.49-.29,1.06-.91,1.23-.34-.16-.18-.49-.25-.73.76-2.02.96-4.16,1.2-6.28.13-1.14.31-2.27.32-3.43,0-.71.31-1.47,1.11-1.81Z"/>
      <path class="cls-144" d="M41.49,75.38c-.66-1.55-.66-3.14-.19-4.71.2-.68.69-1.24,1.51-1.3.66-.04,1.04.28,1.11.95.25.38,0,.61-.28.76-1.09.6-1.31,1.58-1.34,2.71-.02.61.18,1.42-.8,1.57Z"/>
      <path class="cls-81" d="M75.39,24.01c.15-.08.29-.16.44-.24.42.38.52.91.52,1.41,0,1.22.14,2.39.73,3.48-.03.93-.06,1.86-.08,2.79-.53-.08-1.06-1.12-1.6,0,0-2.48,0-4.96,0-7.43Z"/>
      <path class="cls-35" d="M39.79,16.18c.05-.64.22-1.06.93-.52.62.47,1.28.6,2,.2.83-.46,1.19-.13,1.2.74-.06.32.13.69-.22.95-.19.16-.41.23-.65.22-1.1-.05-1.85.43-2.26,1.45-.33-1.01-.67-2.03-1-3.04Z"/>
      <path class="cls-78" d="M360.16,21.62c0,.32,0,.64,0,.96-.86,1.51-1.46,3.1-1.56,4.85.02.25,0,.5,0,.75.02,1.46-.19,2.9-.56,4.31-.15.3-.26.64-.69.62-.49-.67-.24-1.43-.24-2.16.38-1.07.11-2.2.33-3.29.26-1.31.41-2.64.74-3.94.26-1.02.55-2.13,1.97-2.12Z"/>
      <path class="cls-9" d="M44.16,71.05c.53,1.74.73,3.5.2,5.28-.32.19-.39.57-.64.81-.38.36-.75.59-1.07-.06,1-.95,1.1-2.16,1.06-3.7-.83,1.21-.42,2.61-1.33,3.49-.47-.22-.66-.74-.55-1.08.35-1.07.31-2.18.53-3.25.19-.94.93-1.32,1.8-1.49Z"/>
      <path class="cls-109" d="M76.82,61.46c-1.51-.43-1.32-1.66-1.2-2.74.11-.95.18-1.9.22-2.85.04-.98.47-1.7,1.62-1.62.09,1.54.23,3.09.24,4.63,0,.93-.04,1.92-.9,2.58Z"/>
      <path class="cls-168" d="M258.46,38.17c.87-.59,1.16-1.44,1.21-2.45.06-1.18-.24-2.38.19-3.53,0,3.47.03,6.93.02,10.4,0,.72-.28,1.34-1.01,1.57-.56.17-.88-.2-1.05-.71.88-.43.03-1.4.61-1.92.23.1.23.41.65.56-.16-1.28.55-2.58-.61-3.65,0-.08,0-.17,0-.25Z"/>
      <path class="cls-177" d="M335.75,41.29c.82-.81.23-1.97.7-2.87.19-.29.47-.54.4-.93,0-.43-.43-.49-.64-.74.19-.7.57-1.26,1.16-1.68.01,1.98.03,3.97.04,5.95,0,.12.03.25-.01.35-.22.5-.1,1.37-.89,1.31-.69-.06-.79-.76-.76-1.38Z"/>
      <path class="cls-183" d="M122.83,28.1c-.44-.07-.43-.36-.41-.71.08-1.13.16-2.25.2-3.38.05-1.35-.13-2.69-.43-4.01-.44-1.92-.08-3.76.44-5.6.28.44.17.93.19,1.4.13,4.1.09,8.2,0,12.29Z"/>
      <path class="cls-126" d="M428.84,28.57c-.33-1.08-.53-2.2-.45-3.31.06-.92-.43-1.66-.58-2.5-.08-.42-.5-.43-.87-.43.19-.49-.59-.95-.03-1.45.63-.07.96.28,1.13.82.14.42.23.86.81.86.1.19.28.24.48.24.12.11.24.23.26.39.22,1.85.12,3.66-.74,5.37Z"/>
      <path class="cls-57" d="M122.83,33.86c-1.24,1.46-.84,3.29-1.15,4.96-.38,2.01-.67,4.04-1.01,6.05-.04.25-.24.4-.47.51-.25-.1-.22-.3-.17-.5.69-.39.5-1.15.61-1.72.46-2.37.58-4.79.82-7.19.17-1.72.73-3.38,1.37-4.99,0,.96,0,1.92,0,2.88Z"/>
      <path class="cls-143" d="M336.21,18.02c.19,2.81-.64,5.56-.5,8.38.02.42-.15.85-.42,1.21-.11-2.72.06-5.44-.25-8.15.78-.41.18-1.49.92-1.92.19.1.1.35.24.48Z"/>
      <path class="cls-17" d="M337.39,54.03c0,.16,0,.32,0,.48.06.62-.14,1.23-.74,1.34-.67.12-.83-.57-1.04-1.08-.52-1.24-.16-2.5-.06-3.75.03-.39.31-.84.82-.93.43-.08.63.22.77.56-.44.83-.35,1.75-.47,2.63-.09.65.28.7.72.75Z"/>
      <path class="cls-37" d="M360.16,21.62c-1.77.72-1.83,2.43-2.07,3.9-.24,1.48-.59,2.96-.54,4.48.01.37-.16.69-.43.96,0-1.44,0-2.88,0-4.32.72-.75.56-1.75.66-2.65.19-1.64,1.23-3.1,2.48-3.3-.03.31-.07.61-.1.92Z"/>
      <path class="cls-198" d="M40.8,19.22c.03-1.29.6-1.8,1.98-1.76.31,0,.62.06.93.09-.09.8.08,1.63-.31,2.39-1-.29-1.65.17-2.13,1-.29-.53-.41-1.11-.47-1.71Z"/>
      <path class="cls-147" d="M41.1,59.27c-.63-2.16-.39-4.33-.1-6.51.48.37,1.37-.16,1.63.71-.48,1.6-.5,3.29-.95,4.9-.1.37-.02.83-.58.9Z"/>
      <path class="cls-14" d="M77.08,28.66c-.88-.42-1.12-1.15-1-2.05.12-.96-.2-1.88-.24-2.83.17-.48.12-1.03.48-1.44.21.84.11,1.73.97,2.42.66.53-.26,1.41,0,2.15-.09.58.19,1.21-.2,1.76Z"/>
      <path class="cls-139" d="M165.1,43.94c.52.92,1.41,1.03,2.03.19.42-.57.74-1.22,1.08-1.85.21-.39.36-.82.93-.74.05,1.8-.7,3.22-2.06,4.35-1.11-.15-2.18-.36-2.45-1.71,0-.08,0-.16,0-.24.06-.07.14-.11.24-.13.1.01.18.05.24.13Z"/>
      <path class="cls-203" d="M366.92,75.34c0,.28-.02.56,0,.83.06.67-.15,1.3-.83,1.34-.68.04-.98-.66-1.06-1.24-.11-.74-.04-1.5.2-2.23.16-.48.38-.94.96-.84.54.09.74.54.73,1.07,0,.36,0,.72,0,1.07Z"/>
      <path class="cls-217" d="M21.08,8.42c-.3-.45-.6-.86-1.23-.49-.45.26-.93.18-1.37-.02-.43-.19-.77-.19-.97.3-.44-.35-.14-.82-.22-1.23.08-.43.22-.86.75-.52.84.54,1.56.3,2.28-.22.43-.31.73-.26.83.32-.02.62-.04,1.24-.07,1.86Z"/>
      <path class="cls-176" d="M358.29,27.38c.14-1.51.51-2.96,1.24-4.29.12-.22.42-.34.64-.51.18,1.39-.13,2.75-.35,4.11-.42.13-.5.62-.86.81-.24.09-.47.06-.67-.11Z"/>
      <path class="cls-157" d="M429.54,90.24c.52-.36.01-1.04.45-1.42.25,1.28-.18,2.52-.24,3.78-.05,1.03-1.28,1.88-2.18,1.76.57-.8-.51-1.26-.41-1.96.09-.08.19-.11.3-.09.91.32,1.18-.29,1.45-.96.16-.39-.04-1.01.63-1.12Z"/>
      <path class="cls-216" d="M20.6,21.37c-.52-.47-.14-1.78-1.22-1.6-.85.15-.52,1.19-.76,1.81-.37.94.14,1.99-.37,2.91-.08.11-.16.11-.24,0,.17-1.64.31-3.27.5-4.91.16-1.34,1.21-1.08,2.1-1.09,0,.96,0,1.91,0,2.87Z"/>
      <path class="cls-19" d="M121.44,43.7c0-.24,0-.49,0-.73.23-.16.23-.31,0-.47,0-.24,0-.48,0-.72.29-.22.43-.53.58-.84.19-.39.51-.63.87-.11-.04,1.59.44,3.19-.02,4.78-.42-.05-.8-.18-1.08-.53-.08-.19-.1-.38-.04-.57.17-.51.12-.66-.31-.8Z"/>
      <path class="cls-205" d="M261.84,9.39c-.96-.42-2.1-.41-2.91-1.21.32-.16.56-.39.72-.72.05-.03.09-.06.14-.08.97-.28,1.82.71,2.81.28.05,0,.11.01.16.02.4.09.79-.47,1.2-.03-.7.58-1.41,1.16-2.11,1.74Z"/>
      <path class="cls-97" d="M42.72,77.02c.38.5.67.15.95-.11.22-.2.29-.58.68-.58-.15.32-.27.65-.45.95-.44.71-1.1.69-1.72-.05-.45-.53-.67-1.15-.7-1.84.55-.42.53-1.02.5-1.61-.05-1.37.33-2.48,1.72-3.04.1-.04.14-.26.2-.4.28.17.23.46.24.72-.04.26-.15.42-.43.48-.22.04-.47.12-.64.25-.76.6-1.18,4.19-.6,5.02.2-.05.26.03.23.22Z"/>
      <path class="cls-123" d="M360.26,20.7c-.16-.69-.41-1.09-1.31-.94-.69.12-1.38.28-2.07.42,0-.4-.02-.8-.02-1.2.96-.35,2.02-.17,2.96-.62.3-.15.49.13.62.39-.1.65.2,1.34-.19,1.96Z"/>
      <path class="cls-48" d="M42.47,53.29c-.42-.38-1.26.42-1.47-.53.02-.38.05-.76.07-1.15.97.19,1.88-.28,2.84-.24.39.52.2,1.11.21,1.68-.09.2-.22.35-.46.34-.25-.02-.51,0-.76.05-.16.01-.31-.03-.42-.15Z"/>
      <path class="cls-29" d="M359,27.37c-.05-.61.27-.78.81-.67-.11,1.74-.22,3.48-.33,5.22-.02.35.02.68-.15,1.04-.54,1.11-1.18,1.18-1.97.17.14-.16.28-.31.42-.47.77-.17.93-.79,1.04-1.43.17-.98.06-1.98.09-2.97,0-.3,0-.59.07-.88Z"/>
      <path class="cls-134" d="M427.14,116.47c0-.34,0-.68.01-1.02.92-.3,1.37-.94,1.43-1.9.01-.23.08-.46.28-.62.24-.1.46-.09.66.1.11.99.13,1.98-.44,2.85-.46.7-.98,1.45-1.94.58Z"/>
      <path class="cls-82" d="M364.57,19.69c.62-.42,1.18-.18,1.31.43.2.91.83,1.5,1.29,2.22-.34.21-.54,0-.81-.19-1.05-.72-1.48-.51-1.62.76-.31-1.06-.19-2.14-.17-3.22Z"/>
      <path class="cls-79" d="M43.91,51.37c-.92.4-1.82.98-2.84.24,0-1.22-.22-2.44.18-3.64,0,.31-.01.63.02.94.06.55-.29,1.28.36,1.61.71.36,1.44.15,2.06-.36.42.34.11.81.21,1.21Z"/>
      <path class="cls-121" d="M17.99,37.97c-.43-.36-.18-.82-.2-1.25.13-.36.1-.77.27-1.12.36-.75.9-.85,1.63-.31.52,1.17-.07,2.22-.36,3.3-.09.36-.51.35-.82.29-.5-.1-.55-.5-.52-.92.55-.23,1.12-.45.78-1.36-.37.45-.3,1.09-.77,1.38Z"/>
      <path class="cls-137" d="M42.47,53.29c.16,0,.32,0,.48-.01.2.35.06.74.09,1.11,0,.95-.24,1.88-.33,2.82-.13.47-.3.93-.51,1.37-.25.39-.13,1.05-.7,1.21-.2-.2-.35-.29-.41-.52.37-.85.56-1.77.63-2.68.09-1.15.39-2.22.74-3.3Z"/>
      <path class="cls-98" d="M121.91,45.13c.4-.02.77.04.95.47.08.76-.23,1.41-.94,1.58-.74.18-1.15-.46-1.46-1.06.24-.41.48-.82.72-1.23.28-.04.53.02.73.24Z"/>
      <path class="cls-201" d="M370.07,25.23c-1.11-.54-1.31-1.75-1.94-2.65,0-.08,0-.16,0-.24-.09-.41.09-.55.48-.48.26.59.57,1.09,1.28,1.28.41.11.69.5.9.9-.02.53-.52.76-.71,1.18Z"/>
      <path class="cls-207" d="M365.96,68.62l-.23-.94c1.14-1.47,1.25-3.87.24-5.02-.13-1.05.99-1.49,1.16-2.4-.04,2.37.32,4.76-.24,7.11-.12.51-.26,1.11-.93,1.25Z"/>
      <path class="cls-195" d="M122.88,7.26c-.12-.54.23-1.53-.98-.99-.67-.23-1.32-.39-1.88.24-.07-.4-.37-.74-.29-1.17.12-.28.29-.45.63-.33.82.31,1.66.16,2.5.06.08.24.16.48.24.73-.11.48.23,1.04-.23,1.47Z"/>
      <path class="cls-191" d="M337.39,54.03c-.25.21-.41.64-.86.36-.33-.2-.36-.51-.21-.83.44-.93-.4-2.21.83-2.91.4,1.1.44,2.23.25,3.38Z"/>
      <path class="cls-188" d="M41.26,20.93c.3-1.48.96-1.78,2.13-1,0,.56,0,1.12,0,1.68-1.27-1.04-1.62-.89-1.91.82-.38-.46-.13-1.01-.22-1.51Z"/>
      <path class="cls-129" d="M429.52,113.04c-.22,0-.44,0-.66,0-.63-1.37-.63-2.73,0-4.1.22,0,.44,0,.65,0,.11,1.36.17,2.73,0,4.09Z"/>
      <path class="cls-165" d="M17.8,34.81c.07-.38.19-.75.19-1.13,0-.69.23-1.43.91-1.39.84.04.86.86.75,1.57-.45.63-1.11.86-1.84.95Z"/>
      <path class="cls-90" d="M18,24.5c.08,0,.16,0,.24,0,.2.79-.47,1.75.5,2.37h0c.5.53.9.21,1.24-.2.24-.29.41-.64.62-.97,0,.32.1.67,0,.95-.19.56-.44,1.15-1.16,1.19-.74.04-1.19-.39-1.43-1.03-.17-.44-.36-.88-.21-1.38.3-.27.17-.63.2-.95Z"/>
      <path class="cls-98" d="M122.88,40.82c-.44-.22-.7-.07-.72.4-.03.5-.34.57-.73.55.16-.64.29-1.3.49-1.93.17-.55.32-1.18,1.15-.96-.06.64-.12,1.29-.19,1.93Z"/>
      <path class="cls-170" d="M164.63,44.17c.41,1.16,1.75.98,2.45,1.71-.82.75-1.64.6-2.48.03,0-.58.01-1.16.02-1.74Z"/>
      <path class="cls-2" d="M43.68,53.28c.15-.08.29-.16.44-.23.15,1.16.45,2.31.44,3.47,0,.39-.07.67-.14,1.13-.16.72-.36,1.09-1.1.59-.08-.17-.1-.34-.08-.52.32-1.02.41-2.07.36-3.14.06-.43-.13-.88.09-1.3Z"/>
      <path class="cls-99" d="M43.41,58.32c.4-.11.42-.48.57-.78.24-.48.36-.21.43.11-.31,1.77-.91,2.49-2.18,2.6-.17-.58.43-.82.55-1.28.18-.25.17-.68.63-.65Z"/>
      <path class="cls-95" d="M17.8,34.81c.53-.49,1.21-.67,1.84-.95.02.48.03.95.05,1.43-1.5-.67-1.38.8-1.89,1.43,0-.64,0-1.28,0-1.92Z"/>
      <path class="cls-143" d="M335.29,28.58c.12.08.35.16.35.25,0,1.75.34,3.52-.12,5.26-.21-1.83-.37-3.66-.22-5.51Z"/>
      <path class="cls-181" d="M42.96,59.05c0,.54-.56.75-.72,1.2-.35-.09-.49-.24-.73-.46-.03-.39.09-.91.48-1.22.36.09.66.3.97.48Z"/>
      <path class="cls-179" d="M426.42,173.75s-.11,0-.11,0h-.11c-.5-.82-.37-1.75-.49-2.64.23.08.46.15.7.23,0,.8,0,1.61,0,2.41Z"/>
      <path class="cls-30" d="M380.6,9.38c.32-.24.64-.48.96-.72.16,1.11-.37,2.06-.85,2.96-1.81,3.43-4.7,5.84-7.82,8.02-.66.46-1.43.67-2.21.86-.59.14-1.1.06-1.52-.4-.03-.05-.06-.11-.08-.16,0-.08,0-.16,0-.24.23-.09.39-.25.48-.48.17-.27.44-.36.74-.38,1.89.02,3.22-1.12,4.4-2.35,1.35-1.4,2.81-2.7,4.01-4.25.7-.91,1.48-1.76,1.89-2.86Z"/>
      <path class="cls-87" d="M368.6,21.86c-.23.09-.39.25-.48.48-.08,0-.16,0-.24,0,.09-.51-.16-.96-.24-1.44.24-.24.48-.48.72-.72.24-.08.48-.16.72-.24,0,0,0,0,0,0,.29.47.1.85-.24,1.2-.28.17-.23.46-.24.72Z"/>
      <path class="cls-111" d="M429.56,22.34c-.33-.93-.51-1.89-.48-2.88.32-.38.46-.75.14-1.23-.34-.5-.34-1.08-.14-1.65.16,0,.32,0,.48,0,.09.49.24.95.72,1.2.66,1.44.31,2.88,0,4.31-.23.11-.42.35-.72.24Z"/>
      <path class="cls-91" d="M370.28,18.98c-.24.08-.48.16-.72.24-.43-.32.09-.64,0-.96.24-.24.48-.48.72-.72,2.48-1.85,4.58-4.1,6.77-6.26.31-.31.61-.62.91-.94,2.28-2.3,3.62-5.16,4.74-8.13.26-.68.54-1.22,1.26-1.46.27,2.25-1.22,3.88-2.05,5.73-.45,1-1.21,1.84-1.54,2.9,0,.44-.23.76-.54,1.02-1.15.99-2.05,2.22-3.19,3.22-1.88,1.65-3.64,3.44-5.64,4.95-.22.17-.42.37-.71.41Z"/>
      <path class="cls-171" d="M377.96,10.34c-.67,1.32-1.71,2.39-2.83,3.26-1.17.92-2.05,2.06-3.12,3.05-.5.47-.99.93-1.74.89-.52-1.27.02-2.3.8-3.23.86-1.03,1.77-2.02,2.69-3,.69-.74,1.42-.72,1.96.15.38.62.64.45.93,0,.33-.5.61-1.04,1.29-1.12Z"/>
      <path class="cls-92" d="M150.48,5.06c-.19.6-.35,1.21-.58,1.79-.1.27-.38.46-.67.27-.25-.15-.15-.41-.06-.64.2-.47.39-.95.59-1.42.24-.18.48-.22.72,0Z"/>
      <path class="cls-51" d="M150.48,5.06c-.24,0-.48,0-.72,0,.05-.11.1-.21.14-.32.11-.33.21-.82.66-.6.47.23.17.62-.08.92Z"/>
      <path class="cls-28" d="M43.34,6.99c.58.04,1.04.66.99,1.32-.07,1.1-.4,2.19-1.49,2.8-.98.55-1.87.2-2.2-.87-.37-1.2,1.21-3.29,2.7-3.25Z"/>
      <path class="cls-126" d="M427.64,7.46c.26.2.24.48.24.76,0,2.93,0,5.87,0,8.8,0,.28.02.56-.24.76V7.46Z"/>
      <path class="cls-18" d="M77.75,11.3c3.17-3.04,6.78-5.63,9.48-9.15.5-.65.74-1.5,1.55-1.89-.24,1.2-.28,2.49-.77,3.56-.52,1.12-1.44,2.11-2.45,2.87-1.78,1.35-3.2,3.05-4.8,4.58-.9.87-2.01.87-3.01.02Z"/>
      <path class="cls-199" d="M76.55,14.66c-.39-.21-.09-.76-.48-.96,0-.4,0-.8,0-1.2.56-.08.16-.88.72-.96.16-.08.32-.16.48-.24,0,.08,0,.16,0,.24,0,.24,0,.48,0,.72-.4.34-.18.8-.24,1.2-.4.34-.18.8-.24,1.2-.08,0-.16,0-.24,0Z"/>
      <path class="cls-49" d="M284.38,9.61c0-.43,0-.87,0-1.3,0-.36.11-.62.54-.59.38.03.42.3.42.59,0,.43,0,.87,0,1.3-.31.26-.63.26-.94,0Z"/>
      <path class="cls-24" d="M284.38,9.61c.31,0,.63,0,.94,0,0,.16.03.31.01.47-.04.39.16.98-.54.93-.59-.04-.38-.58-.42-.93-.02-.15,0-.31,0-.47Z"/>
      <path class="cls-148" d="M448.52,1.22c.8-.15,1.55-.55,2.4-.48-.6,1.62-2.29,1.5-3.49,2.1-1.03.51-2.49.57-3.25,1.2-1.34,1.11-3.35,1.6-3.91,3.58-.04.13-.22.22-.34.32-.66-.11-1.03.31-1.39.75-.69.83-1.22,1.76-1.75,2.7-.81,1.42-2.01,2.45-3.3,3.4-.19.14-.41.25-.66.13-.66-.77-.12-1.42.37-1.87,1.09-1,1.69-2.31,2.42-3.52.86-1.44,1.77-2.85,2.79-4.18.6-.78,1.38-1.33,2.29-1.69,2.22-.89,4.52-1.53,6.84-2.07.35-.08.68-.21,1-.36Z"/>
      <path class="cls-206" d="M432.93,14.92c2.44-1.54,3.79-3.99,5.29-6.32.29-.44.67-.78,1.15-1.01.4-.19.49.04.55.35-.23.49-.69.86-.78,1.43-.84,1.41-1.26,3.05-2.38,4.31-.34.38-.66.78-.99,1.17-1.17.56-2.06,1.44-2.87,2.42-.5.32-.69-.03-.88-.39-.04-.81.19-1.49.9-1.96Z"/>
      <path class="cls-140" d="M232.78,2.18c.16,0,.32,0,.48,0,.09.1.13.21.14.34-.35,1.41-.18,1.72,1.3,2.02,2.26.48,4.53.33,6.75-.23,2.28-.58,4.51-1.28,6.93-.8.85.17,1.75.03,2.61-.17.27,0,.53.03.75.2.09.11.12.24.11.38-.23.59-.78.56-1.27.64-.89.15-1.79.1-2.68.1-1.6-.46-3.02.13-4.49.64-2.63.92-5.32,1.56-8.14,1.43-1.6-.07-2.8-.92-3.68-2.15-.8-1.12-.23-2.15,1.2-2.41h0Z"/>
      <path class="cls-56" d="M233.26,2.42c0-.08,0-.16,0-.24.83-.35,1.72-.12,2.55-.16,3.08-.14,6.1-.9,9.2-.8.76.02,1.35-.72,2.16-.48,1.84-.72,3.49.08,5.09.77.86.37,1.07,1.21.67,2.11-.25.15-.35.52-.72.48-.27.13-.37-.06-.48-.24,0-.08,0-.16,0-.24-1.14-1.89-2.81-1.9-4.8-1.66-3.24.39-6.39,1.39-9.69,1.28-1-.03-1.97-.36-2.97-.26-.42-.04-.82-.11-1.01-.56Z"/>
      <path class="cls-64" d="M252.94,3.62c-.1-.62-.01-1.49-.55-1.74-1.13-.52-2.23-1.3-3.55-1.22-.55.03-1.11.05-1.66.08.94-.68,1.91-.5,2.94-.21,1.47.42,2.99.72,4.46,1.14.93.27,1.51.95,1.81,1.88.2.61-.16.98-.54,1.33-.4.36-.74.07-1.04-.19-.55-.49-1.22-.75-1.86-1.06Z"/>
      <path class="cls-172" d="M251.73,3.86c.16.08.32.16.48.24.08.16.16.32.24.48-.08.08-.16.16-.24.24-1.2.96-2.6.49-3.92.56-.48-.06-.95-.15-1.33-.47-.09-.84.74-.19.93-.57,1.29-.09,2.63.24,3.84-.48Z"/>
      <path class="cls-127" d="M336.21,18.02c-.19-.1-.23-.28-.24-.48-.15-.9.24-1.75.24-2.64.84-1.19.14-2.45.16-3.68,0-.22-.19-.45.08-.64.54-.28.64.08.72.48.46,1.88.28,3.69-.56,5.43-.2.42-.15.85-.16,1.28-.08.08-.16.16-.24.24Z"/>
      <path class="cls-83" d="M337.17,11.06c-.25-.15-.35-.52-.72-.48,0-.08,0-.16,0-.24.06-.72-.16-1.47.24-2.16.28-.17.23-.46.24-.72.16.08.32.16.48.24.08,0,.16,0,.24,0-.46.93-.15,1.92-.24,2.88,0,.2-.05.38-.24.48Z"/>
      <path class="cls-185" d="M265.41.74c-.24.32-.48.64-.72.96,0,0,0,0,0,0-.65,1.02-1.91,1.43-2.48,2.52-.65.64-1.24,1.33-1.64,2.16-.24.37-.37.86-.92.91-.27-.14-.77.02-.72-.55,1.13-3.11,3.37-5.02,6.48-6Z"/>
      <path class="cls-66" d="M258.93,6.74c.24.16.48.32.72.48.07.05.1.11.07.16-.02.05-.05.08-.07.08,0,0,0,0,0,0-1.49.1-2.93-.11-4.33-.68-1.45-.6-3.01-.61-4.54-.76.22-.75.8-.79,1.44-.72.72-.04,1.31.17,1.97.54,1.44.81,3.03,1.29,4.74.9Z"/>
      <path class="cls-31" d="M252.22,5.3c-.48.24-.96.48-1.44.72-.56,0-1.12,0-1.68,0-.32,0-.64,0-.96,0-.13-.18-.41-.05-.53-.26-.04-.4.35-.47.53-.7,1.36-.01,2.73.1,4.08-.24,0,.16,0,.32,0,.48Z"/>
      <path class="cls-103" d="M247.9,4.34c-.21.39-.75.09-.96.48-1.22.57-2.51.97-3.79,1.34-1.52.43-2.91,1.01-4.07,2.1-.12.03-.24.03-.37,0-.28-.14-.59-.28-.9-.26-2,.11-3.99-.03-5.97-.3-.08,0-.17,0-.25,0,.23-1.25-.41-2.17-1.09-3.13-.85-1.22-.51-2.14.85-2.63.51-.08.96.16,1.44.24-1.63.85-1.65,1.76-.23,3.01,1.12.99,2.3,1.11,3.77,1.14,3.23.07,6.1-1,9-2.13.9-.35,1.71.29,2.58.13Z"/>
      <path class="cls-88" d="M231.83,7.69c.03-.2.06-.45.33-.38,1.89.52,3.8.41,5.72.33.31-.01.86-.09.88.53-.11.72-.79.48-1.19.72,0,0,0,0,0,0-2.04.18-3.93-.32-5.75-1.2Z"/>
      <path class="cls-116" d="M432.93,14.92c-.25.63-.51,1.27-.76,1.9-.49.61-.96,1.26-1.89.71.12-1.28.45-2.44,1.01-3.65.82-1.78,1.78-3.46,3-4.94,1.36-1.65,2.45-3.53,4.1-4.95,1.52-1.3,3.1-2.01,5.19-2.2,1.63-.15,3.33-.13,4.94-.57-1.52.75-3.11,1.27-4.75,1.69-2.42.63-4.73,1.48-6.1,3.88-1.04,1.81-2.27,3.5-3.19,5.38-.16.33-.57.54-.85.81-.54.53-1.1,1.06-.69,1.93Z"/>
      <path class="cls-86" d="M430.28,17.54c.82.26,1.2-.63,1.89-.71.15.31.39.46.74.46-.26.86-1.39,1.24-1.37,2.2.01.95-.56,1.6-.9,2.37-.11.26-.27.48-.6.49-.07-.05-.09-.11-.07-.16.02-.05.05-.08.07-.08.32-1.43.23-2.87.24-4.32,0-.08,0-.16,0-.24Z"/>
      <path class="cls-31" d="M430.04,22.1c0,.08,0,.16,0,.24.43.64.15,1.28,0,1.92-.17,1.61-.03,3.27-.72,4.8-.08.08-.16.16-.24.24-.08,0-.16,0-.24,0,0-.24,0-.48,0-.72.22-1.91.75-3.8.48-5.76,0-.2.05-.38.24-.48.16-.08.32-.16.48-.24Z"/>
      <path class="cls-94" d="M262.06,4.1c.54-1.17,1.63-1.74,2.64-2.4.09.86.52,1.5,1.18,2.06.53.45.79,1.02-.23,1.28-.18.22-.41.23-.66.17-.85-.7-1.88-.96-2.94-1.12Z"/>
      <path class="cls-39" d="M264.92,5.04c.24,0,.49,0,.73,0,.48.03,1.05-.07.94.72-1.44.32-2.84.71-3.83,1.92,0,0,0,0,0,0-.29.2-.59.23-.78-.09-.26-.44.02-.79.29-1.13.75-.71,1.51-1.43,2.65-1.43Z"/>
      <path class="cls-175" d="M86.87.98c-.68,1.31-1.73,2.35-2.66,3.46-1.49,1.77-3.34,3.17-5.1,4.66-.27.23-.55.29-.88.28-.42-1.82,1-2.85,1.85-4.05,1.2-1.7,2.97-2.86,4.71-3.96.55-.35,1.37-.27,2.07-.39Z"/>
      <path class="cls-128" d="M368.84,21.14c.08-.4.16-.8.24-1.2.77.47,1.53.31,2.35.06,1.13-.35,2.14-.96,2.96-1.73,2.17-2.01,4.59-3.83,5.99-6.55.5-.98.98-1.97,1.18-3.07.96-1.68,1.92-3.36,2.88-5.04.08,0,.16,0,.24,0,.11.97-.63,1.72-.72,2.64-1.14.99-1.86,2.29-2.34,3.66-.67,1.92-1.45,3.65-2.89,5.2-1.76,1.89-3.63,3.55-5.78,4.96-.65.43-.98,1.19-1.71,1.58-.82.44-1.68.33-2.4-.52Z"/>
      <path class="cls-116" d="M370.28,18.98c1.64-1.5,3.24-3.05,4.94-4.48,1.17-.98,2.19-2.09,3.27-3.16.64-.63,1.25-1.31,1.87-1.96.08,0,.16,0,.24,0,.26.98-.46,1.54-.97,2.17-2.01,2.45-4.09,4.84-6.65,6.73-.77.57-1.65,1.06-2.7.69Z"/>
      <path class="cls-37" d="M427.39,92.4c-.08,0-.15,0-.23,0,1.01-4.06.23-8.12.04-12.19-.09-2.02.05-4.06.26-6.07.5-4.64.82-9.26-.18-13.88-.07-.35-.11-.71-.13-1.06-.25-7.18.71-14.32.52-21.5-.06-2.16.38-4.34.55-6.51.04-.46-.07-.94-.12-1.41.16,0,.32,0,.48,0,.23.73.18,1.44.07,2.22-.29,2-.31,4.03-.57,6.04-.21,1.63,0,3.24.02,4.85.03,5.34-.74,10.65-.48,15.99.03.51,0,1.02.17,1.53,1.35,4.05.89,8.17.43,12.28-.31,2.79-.88,5.57-.38,8.4.18,1.04-.28,2.14.25,3.16.05.41-.14.86.22,1.21.78,1.57.21,5.75-.95,6.95Z"/>
      <path class="cls-200" d="M164.87,43.93c-.08,0-.16,0-.25,0-1.37-.76-1.5-2.16-1.36-3.4.15-1.35.13-2.69.16-4.04.03-1.59.21-3.15.47-4.72.2-1.19.76-2.07,1.94-2.48.35-.03.66.08.96.25.08.51-.16.96-.24,1.44.11.11.1.21-.03.3-1.53.45-1.9,1.7-2.02,3.05-.19,2.14-.32,4.27-.29,6.42.01,1.02.1,1.97.73,2.81.04.13.02.25-.06.36Z"/>
      <path class="cls-215" d="M30.95,131.68c-.16-.95.28-2.03.29-3.14,0-.54.28-1.16,1.02-1.07.72.09.66.72.61,1.22-.14,1.42-.3,2.83-.52,4.24-.07.44-.24,1.02-.88.93-.59-.08-.51-.62-.52-1.05,0-.32,0-.64,0-1.13Z"/>
      <path class="cls-132" d="M337.16,37.44c.03.52.05,1.04-.71.97-.35-.26-.21-.64-.22-.98.31-.25.63-.24.94,0Z"/>
      <path class="cls-219" d="M337.16,37.44c-.31,0-.62,0-.94,0,0-.23,0-.47,0-.7.52-.04,1.03-.08.95.7Z"/>
      <path class="cls-215" d="M425.72,171.11c.74.77.41,1.75.49,2.64,0,0,0,0,0,0-.16.15-.12.35-.13.54-.01.54-.33.89-.79,1.02-.49.13-.77-.23-.98-.63-.08-.9-.03-1.79.35-2.63.21-.47.46-.92,1.07-.94Z"/>
      <path class="cls-179" d="M424.3,174.68c1.09.76,1.19.71,1.9-.93-.01.31.05.65-.05.93-.16.44-.46.91-.96.89-.45-.02-.91-.27-.89-.89Z"/>
      <path class="cls-182" d="M365.97,62.66c.42.01.94-.14.94.56,0,1.07.08,2.15-.05,3.21-.07.55-.23,1.32-1.13,1.26-.46-1.19.24-2.38,0-3.58.43-.42.15-.96.24-1.44Z"/>
      <path class="cls-166" d="M127.69,194.46c-.07-.88-.03-1.59.26-2.26.16-.37.4-.74.87-.67.43.06.7.39.75.81.15,1.19-.08,2.37-.3,3.53-.06.35-.38.64-.78.62-.45-.02-.73-.36-.79-.77-.07-.47-.02-.95-.02-1.27Z"/>
      <path class="cls-119" d="M427.39,92.4c.93-2.23,1.01-4.58.95-6.95.01-.4.03-.79.04-1.19.31-.28.62-.27.93,0-.03,2,.43,3.98.24,5.98-.17.58-.23,1.23-.54,1.73-.34.55-.76,1.52-1.62.43Z"/>
      <path class="cls-19" d="M429.31,84.26c-.31,0-.62,0-.93,0,0-.32-.06-.68.4-.71.53-.05.55.33.53.71Z"/>
      <path class="cls-26" d="M258.46,38.43c.72-.12,1.02.16.97.91-.05.71.04,1.43-.02,2.14-.03.44.33,1.21-.51,1.19-.73-.01-.32-.75-.47-1.14.01-1.03.02-2.06.03-3.09Z"/>
      <path class="cls-88" d="M428.86,108.95c0,1.37,0,2.73,0,4.1-.05.58.07,1.19-.28,1.73-.34.53-.73.91-1.43.68-.42-.4-.19-.8.02-1.19.45-.42.47-.96.47-1.53,0-1.34-.11-2.69.25-4.01.31-.26.62-.26.93,0,0,.08.02.15.04.22Z"/>
      <path class="cls-13" d="M428.82,108.73c-.31,0-.62,0-.93,0,0-.27-.09-.63.3-.67.45-.05.63.25.63.67Z"/>
      <path class="cls-184" d="M166.54,31.22c0-.08,0-.16,0-.24.7.85.99,1.82.96,2.91.66,1.78.34,3.61.21,5.42-.09,1.29-.56,2.49-1.33,3.54-.33.39-.6.83-1.06,1.09h-.11s-.11,0-.11,0c-.08,0-.16,0-.23,0,0-.08,0-.16,0-.24-.07-.13-.09-.26-.07-.4,1.21-2.39,1.08-4.99,1.16-7.55.04-1.07-.05-2.14.06-3.21.1-.47.15-.95.53-1.31Z"/>
      <path class="cls-133" d="M166.05,42.96c1.88-2.8,1.41-5.98,1.46-9.07.36.02.88-.21.93.41.18,2.35.66,4.72-.2,7.03-.35.93-.77,1.83-1.67,2.38-.55,0-.72-.25-.51-.75Z"/>
      <path class="cls-75" d="M166.05,42.96c.02.36.18.61.51.75-.33.49-.72.67-1.23.23.04-.48.34-.76.72-.98Z"/>
      <path class="cls-110" d="M211.2,5.07c1.36-.46,2.07-1.83,3.33-2.43.62.12.53.49.28.86-.64.96-1.41,1.8-2.48,2.29-.73.34-1.15.13-1.13-.72Z"/>
      <path class="cls-42" d="M237.57,8.9c.4-.24.79-.48,1.19-.72.09,0,.17,0,.26.01,1.58-1.2,3.43-1.82,5.28-2.4,1.1-.35,2.24-.47,3.36,0,.2,0,.38.04.48.24-2.96,1.21-6.19,1.52-9.16,2.69-.46.18-.93.2-1.41.19Z"/>
      <path class="cls-192" d="M18.74,26.87c-.3-1.46.43-2.86.28-4.32-.02-.23.24-.4.51-.42.27-.02.44.13.56.36.31.61-.12,3.67-.57,4.16-.22.24-.49.22-.77.22,0,0,0,0,0,0Z"/>
      <path class="cls-115" d="M121.91,45.13c-.27,0-.55.04-.73-.24,0-.42,0-.83.26-1.19.6-.06,1.02,0,.59.76-.11.18-.08.44-.12.67Z"/>
      <path class="cls-6" d="M121.44,42.5c.28.05.63-.15.83.23-.2.38-.55.18-.83.24,0-.16,0-.31,0-.47Z"/>
      <path class="cls-138" d="M359.24,28.1c-.02,1.35.15,2.72-.27,4.04-.19.6-.47,1.07-1.18.52.15-1.52.57-3,.51-4.55.31-.27.63-.26.94,0Z"/>
      <path class="cls-149" d="M359.24,28.1c-.31,0-.63,0-.94,0,0-.24,0-.48-.01-.72.24,0,.48-.01.71-.02.28.18.24.46.24.73Z"/>
      <path class="cls-4" d="M42.72,77.02c-.08-.07-.15-.15-.23-.22.18-1.08.34-2.17.55-3.24.05-.25.18-.58.52-.55.17.01.38.14.48.28.47.69-.49,3.38-1.32,3.73Z"/>
      <path class="cls-110" d="M77.31,57.17c-.08.86-.36,1.74-.29,2.66.03.36-.2.62-.58.63-.38,0-.6-.26-.58-.62.07-1.23.16-2.45.27-3.67.03-.3.28-.47.61-.44.27.02.45.2.5.44.06.31.05.63.07,1Z"/>
      <path class="cls-218" d="M366.19,74.91c.35-.01.49.18.49.5,0,.33,0,.64-.45.66-.35.01-.48-.18-.49-.51,0-.33,0-.64.45-.66Z"/>
      <path class="cls-77" d="M262.55,6.52c-.19.44-1.16,1.02.22,1.17-.51.54-1.17.53-1.7.18-.46-.3-.95-.24-1.41-.4,0-.08,0-.16,0-.24.24-.32.48-.64.72-.96,1.11-.98,1.7-.91,2.17.26Z"/>
      <path class="cls-32" d="M43.68,53.28c.2.38.28.78.21,1.21-.41.02-.77-.14-1.16-.24-.08-.36.07-.66.21-.97.24-.3.49-.3.73,0Z"/>
      <path class="cls-173" d="M17.99,37.97c.09-.46.18-.92.26-1.38.06-.31.22-.51.54-.51.39,0,.38.3.41.58.15,1.27-.15,1.58-1.22,1.3,0,0,0,.01,0,.01Z"/>
      <path class="cls-125" d="M42.74,54.25c.48-.38.85-.22,1.16.24.03,1.15.15,2.31-.48,3.36-.17.3-.4.48-.73.27-.29-.18-.4-.44-.22-.77.09-1.03.19-2.06.28-3.09Z"/>
      <path class="cls-220" d="M42.46,57.34c.08.61.36.87.96.51,0,.16,0,.31,0,.47-.15.24-.3.49-.45.73-.55.29-.75-.11-.97-.48.1-.43.17-.87.46-1.23Z"/>
      <path class="cls-104" d="M233.26,2.42c.3.16.61.28.96.24,1.97.62,3.99.6,6.01.36,1.73-.21,3.42-.72,5.19-.72,1.78,0,3.41.83,5.18.85.23,0,.45.16.42.47-1.37.37-2.76.37-4.12.09-1.06-.22-2.06,0-3.04.3-1.93.61-3.89,1.1-5.89,1.14-1.11.02-2.27,0-3.41-.29-1.85-.45-2.14-.88-1.3-2.44Z"/>
      <path class="cls-145" d="M251.01,3.62c-2.94-.37-5.77-1.48-8.85-.66-2.37.64-4.86.6-7.31.17-.3-.05-.51-.2-.64-.47.93-.15,1.82.18,2.72.25,2.43.2,4.72-.55,7.08-.84,1.71-.21,3.4-.65,5.14-.61,1.44.03,2.15.64,2.57,2.16-.24,0-.48,0-.72,0Z"/>
      <path class="cls-72" d="M247.66,5.78c-2.76-.1-5.28.7-7.61,2.12-.31.19-.65.31-1.02.28.54-.93,1.35-1.55,2.38-1.77,1.88-.41,3.55-1.56,5.54-1.59.4.08.8.16,1.2.24.04.37-.33.47-.48.72Z"/>
      <path class="cls-159" d="M262.55,6.52c-.61-1.08-1.4-.57-2.17-.26.37-.87.89-1.62,1.68-2.16,1.18-.36,2.13-.04,2.87.94-.82.45-1.69.82-2.38,1.48Z"/>
      <path class="cls-46" d="M164.87,43.45c0,.08,0,.16,0,.24-.73-.54-.97-1.26-.97-2.17,0-2.82.03-5.64.48-8.43.17-1.06.98-1.55,1.71-2.12.21-.16.28.21.46.25.03.42,0,.83-.24,1.2-1.68,2.18-1.29,4.81-1.6,7.3-.16,1.26.25,2.49.16,3.74Z"/>
      <path class="cls-16" d="M164.87,43.45c-1.17-2.81-.12-5.69-.16-8.52-.01-.85.55-1.99,1.59-2.51,0,2.75.06,5.5-.24,8.24-.12,1.06-.51,1.98-1.2,2.79Z"/>
    </g>
  </g>
</svg>